<?xml version="1.0" standalone="yes"?>
<svg xmlns="http://www.w3.org/2000/svg" width="201" height="259">
<path style="fill:#a6730c; stroke:none;" d="M0 0L0 259L201 259L201 0L0 0z"/>
<path style="fill:#bc9649; stroke:none;" d="M93 29C96.6975 30.5515 101.017 30 105 30C101.303 28.4485 96.9832 29 93 29z"/>
<path style="fill:#bd974a; stroke:none;" d="M85.6667 30.3333C85.2222 30.7778 86.2778 30.7222 86.3333 30.6667C86.7778 30.2222 85.7222 30.2778 85.6667 30.3333z"/>
<path style="fill:#ccb075; stroke:none;" d="M87.6667 30.3333C87.2222 30.7778 88.2778 30.7222 88.3333 30.6667C88.7778 30.2222 87.7222 30.2778 87.6667 30.3333z"/>
<path style="fill:#ede2cd; stroke:none;" d="M89 30C93.9741 32.0872 100.638 31 106 31C101.026 28.9128 94.362 30 89 30z"/>
<path style="fill:#dac59a; stroke:none;" d="M106.667 30.3333C106.222 30.7778 107.278 30.7222 107.333 30.6667C107.778 30.2222 106.722 30.2778 106.667 30.3333z"/>
<path style="fill:#ccae73; stroke:none;" d="M108 30C109.248 30.6848 109.548 30.7488 111 31C109.752 30.3152 109.452 30.2512 108 30z"/>
<path style="fill:#c19d55; stroke:none;" d="M81.6667 31.3333C81.2222 31.7778 82.2778 31.7222 82.3333 31.6667C82.7778 31.2222 81.7222 31.2778 81.6667 31.3333z"/>
<path style="fill:#d2b985; stroke:none;" d="M83.6667 31.3333C83.2222 31.7778 84.2778 31.7222 84.3333 31.6667C84.7778 31.2222 83.7222 31.2778 83.6667 31.3333z"/>
<path style="fill:#eee5d1; stroke:none;" d="M85 31C86.5061 31.683 87.3148 31.8259 89 32C87.4939 31.317 86.6852 31.1741 85 31z"/>
<path style="fill:#ffffff; stroke:none;" d="M37 164C41.6093 163.397 48.4159 160.888 50.9722 156.671C52.7434 153.75 52 149.265 52 146L52 122C52 108.757 49.6095 92.817 53.5147 80.0394C56.3546 70.7473 62.7056 62.5203 70 56.3009C74.0625 52.8371 78.6669 50.3755 83.4244 48.0154C101.187 39.2039 122.52 48.8466 134.957 62C138.663 65.9203 145.974 74.7422 144.212 80.787C143.223 84.1806 137.811 86.1421 135 87.6952C125.945 92.6983 117.11 100.39 107 103L107 83C102.413 83.4728 95.7011 85.7769 93.6034 90.3758C91.3853 95.2386 93 103.722 93 109C93 112.982 91.8724 119.129 94.0278 122.671C96.5809 126.866 103.736 129.49 107.729 132.285C110.568 134.274 113.523 137.35 117 138.14C122.451 139.379 131.384 132.906 133 128C127.07 125.756 121.626 121.96 116 119C125.34 111.32 137.398 105.517 148 99.6944C152.095 97.4454 159.34 94.8542 160.682 89.9066C163.41 79.8533 156.651 67.1975 151.712 58.9606C130.422 23.4512 74.3681 21.511 49.4144 54C36.7041 70.5483 37 89.257 37 109L37 164z"/>
<path style="fill:#e9dcc1; stroke:none;" d="M107 31C108.769 31.7789 110.036 31.9124 112 32C110.231 31.2211 108.964 31.0876 107 31z"/>
<path style="fill:#d1b782; stroke:none;" d="M112 31C113.248 31.6848 113.548 31.7488 115 32C113.752 31.3152 113.451 31.2512 112 31z"/>
<path style="fill:#b78e3b; stroke:none;" d="M115.667 31.3333C115.222 31.7778 116.278 31.7222 116.333 31.6667C116.778 31.2222 115.722 31.2778 115.667 31.3333z"/>
<path style="fill:#b78d39; stroke:none;" d="M77 34L80 33C78.2218 32.0446 77.9786 32.2337 77 34z"/>
<path style="fill:#dac59a; stroke:none;" d="M80.6667 32.3333C80.2222 32.7778 81.2778 32.7222 81.3333 32.6667C81.7778 32.2222 80.7222 32.2778 80.6667 32.3333z"/>
<path style="fill:#f2ebdc; stroke:none;" d="M82.6667 32.3333C82.2222 32.7778 83.2778 32.7222 83.3333 32.6667C83.7778 32.2222 82.7222 32.2778 82.6667 32.3333z"/>
<path style="fill:#e5d7b8; stroke:none;" d="M114 32C115.248 32.6848 115.548 32.7488 117 33C115.752 32.3152 115.451 32.2512 114 32z"/>
<path style="fill:#bf9b51; stroke:none;" d="M117.667 32.3333C117.222 32.7778 118.278 32.7222 118.333 32.6667C118.778 32.2223 117.722 32.2778 117.667 32.3333z"/>
<path style="fill:#b68d39; stroke:none;" d="M119 32C120.223 33.1952 120.42 33.3164 122 34C120.777 32.8048 120.58 32.6836 119 32z"/>
<path style="fill:#f8f5ed; stroke:none;" d="M74 35C76.3685 35.5079 77.732 34.9403 80 34C77.6315 33.4921 76.268 34.0597 74 35z"/>
<path style="fill:#e1d0ae; stroke:none;" d="M119 33L120 34L119 33z"/>
<path style="fill:#c9aa6b; stroke:none;" d="M74 34L75 35L74 34z"/>
<path style="fill:#dfcda9; stroke:none;" d="M122 34L123 35L122 34z"/>
<path style="fill:#c6a665; stroke:none;" d="M123 34L124 35L123 34z"/>
<path style="fill:#e3d3b3; stroke:none;" d="M72.6667 35.3333C72.2222 35.7778 73.2778 35.7222 73.3333 35.6667C73.7778 35.2222 72.7222 35.2778 72.6667 35.3333M123 35C124.458 36.0811 125.248 36.4361 127 37C125.457 35.7334 124.952 35.5107 123 35z"/>
<path style="fill:#d0b57f; stroke:none;" d="M69 36C70.2484 36.6848 70.5484 36.7488 72 37C70.7517 36.3153 70.4515 36.2512 69 36z"/>
<path style="fill:#be994d; stroke:none;" d="M127.667 36.3333C127.222 36.7777 128.278 36.7222 128.333 36.6667C128.778 36.2221 127.722 36.2778 127.667 36.3333z"/>
<path style="fill:#ccaf74; stroke:none;" d="M68 37L69 38L68 37z"/>
<path style="fill:#e2d2b0; stroke:none;" d="M128 37L129 38L128 37z"/>
<path style="fill:#b88f3c; stroke:none;" d="M129.667 37.3333C129.222 37.7778 130.278 37.7222 130.333 37.6667C130.778 37.2223 129.722 37.2777 129.667 37.3333z"/>
<path style="fill:#c3a15c; stroke:none;" d="M66 38L67 39L66 38z"/>
<path style="fill:#e2d2b0; stroke:none;" d="M67 38L68 39L67 38z"/>
<path style="fill:#e0ceaa; stroke:none;" d="M130 38L131 39L130 38z"/>
<path style="fill:#d9c498; stroke:none;" d="M132 39L133 40L132 39z"/>
<path style="fill:#d0b57e; stroke:none;" d="M63 40L64 41L63 40z"/>
<path style="fill:#cfb47c; stroke:none;" d="M134 40L135 41L134 40z"/>
<path style="fill:#be994e; stroke:none;" d="M61 41L62 42L61 41z"/>
<path style="fill:#d8c194; stroke:none;" d="M62 41L63 42L62 41z"/>
<path style="fill:#d6be8e; stroke:none;" d="M135 41L136 42L135 41z"/>
<path style="fill:#b08328; stroke:none;" d="M136 41C137.223 42.1952 137.42 42.3164 139 43C137.777 41.8048 137.58 41.6836 136 41z"/>
<path style="fill:#c19e56; stroke:none;" d="M60 42L61 43L60 42z"/>
<path style="fill:#ddcaa4; stroke:none;" d="M136 42L137 43L136 42z"/>
<path style="fill:#c9aa6b; stroke:none;" d="M59 43L60 44L59 43z"/>
<path style="fill:#ccb075; stroke:none;" d="M138 43L139 44L138 43z"/>
<path style="fill:#d6bf90; stroke:none;" d="M58 44L59 45L58 44z"/>
<path style="fill:#d8c296; stroke:none;" d="M139 44L140 45L139 44z"/>
<path style="fill:#bc9649; stroke:none;" d="M56 45L57 46L56 45z"/>
<path style="fill:#dbc69c; stroke:none;" d="M57 45L58 46L57 45z"/>
<path style="fill:#ede3ce; stroke:none;" d="M91.6667 45.3333C91.2222 45.7778 92.2778 45.7222 92.3333 45.6667C92.7777 45.2222 91.7222 45.2778 91.6667 45.3333z"/>
<path style="fill:#d8c396; stroke:none;" d="M93 45C96.6975 46.5515 101.017 46 105 46C101.303 44.4485 96.9832 45 93 45z"/>
<path style="fill:#dac499; stroke:none;" d="M140 45L141 46L140 45z"/>
<path style="fill:#be984d; stroke:none;" d="M55 46L56 47L55 46z"/>
<path style="fill:#ddc9a2; stroke:none;" d="M56 46L57 47L56 46z"/>
<path style="fill:#ebdfc8; stroke:none;" d="M86 46C87.2484 46.6848 87.5484 46.7488 89 47C87.7517 46.3152 87.4515 46.2512 86 46z"/>
<path style="fill:#c6a562; stroke:none;" d="M89 46C90.506 46.683 91.3148 46.8259 93 47C91.4939 46.317 90.6852 46.1741 89 46z"/>
<path style="fill:#b78e3b; stroke:none;" d="M93 46C96.6975 47.5515 101.017 47 105 47C101.303 45.4485 96.9832 46 93 46z"/>
<path style="fill:#caac6f; stroke:none;" d="M105 46C106.248 46.6848 106.548 46.7488 108 47C106.752 46.3152 106.452 46.2512 105 46z"/>
<path style="fill:#decba6; stroke:none;" d="M108 46C109.248 46.6848 109.548 46.7488 111 47C109.752 46.3152 109.451 46.2512 108 46z"/>
<path style="fill:#d9c398; stroke:none;" d="M141 46L142 47L141 46z"/>
<path style="fill:#bd974b; stroke:none;" d="M54 47L55 48L54 47z"/>
<path style="fill:#e1d0ad; stroke:none;" d="M55 47L56 48L55 47z"/>
<path style="fill:#ede2cd; stroke:none;" d="M83 49L86 48C84.2218 47.0446 83.9786 47.2338 83 49z"/>
<path style="fill:#c8a969; stroke:none;" d="M86.6667 47.3333C86.2222 47.7778 87.2778 47.7222 87.3333 47.6667C87.7778 47.2222 86.7222 47.2778 86.6667 47.3333z"/>
<path style="fill:#c4a15d; stroke:none;" d="M109.667 47.3333C109.222 47.7778 110.278 47.7222 110.333 47.6667C110.778 47.2222 109.722 47.2778 109.667 47.3333z"/>
<path style="fill:#ddcaa3; stroke:none;" d="M111.667 47.3333C111.222 47.7778 112.278 47.7222 112.333 47.6667C112.778 47.2222 111.722 47.2778 111.667 47.3333z"/>
<path style="fill:#efe6d4; stroke:none;" d="M113.667 47.3333C113.222 47.7778 114.278 47.7222 114.333 47.6667C114.778 47.2222 113.722 47.2778 113.667 47.3333z"/>
<path style="fill:#dcc79f; stroke:none;" d="M142 47L143 48L142 47z"/>
<path style="fill:#bd974a; stroke:none;" d="M53 48L54 49L53 48z"/>
<path style="fill:#e6d8bb; stroke:none;" d="M54 48L55 49L54 48z"/>
<path style="fill:#c7a767; stroke:none;" d="M114 48L115 49L114 48z"/>
<path style="fill:#f0e7d5; stroke:none;" d="M115.667 48.3333C115.222 48.7778 116.278 48.7222 116.333 48.6667C116.778 48.2222 115.722 48.2778 115.667 48.3333z"/>
<path style="fill:#bd984c; stroke:none;" d="M52 49L53 50L52 49z"/>
<path style="fill:#e1cfad; stroke:none;" d="M53 49L54 50L53 49z"/>
<path style="fill:#e0ceaa; stroke:none;" d="M80 49L81 50L80 49z"/>
<path style="fill:#c7a766; stroke:none;" d="M117 49L118 50L117 49z"/>
<path style="fill:#e1d0ac; stroke:none;" d="M118 49L119 50L118 49z"/>
<path style="fill:#bc9648; stroke:none;" d="M51 50L52 51L51 50z"/>
<path style="fill:#ddc9a1; stroke:none;" d="M52 50L53 51L52 50z"/>
<path style="fill:#c29f58; stroke:none;" d="M78.6667 50.3333C78.2222 50.7778 79.2778 50.7222 79.3333 50.6667C79.7778 50.2222 78.7222 50.2778 78.6667 50.3333z"/>
<path style="fill:#c2a05a; stroke:none;" d="M118 50C119.458 51.0811 120.248 51.4361 122 52C120.457 50.7333 119.952 50.5108 118 50z"/>
<path style="fill:#dcc79e; stroke:none;" d="M145 50L146 51L145 50z"/>
<path style="fill:#dac69b; stroke:none;" d="M51 51L52 52L51 51z"/>
<path style="fill:#c6a563; stroke:none;" d="M76.6667 51.3333C76.2222 51.7778 77.2778 51.7222 77.3333 51.6667C77.7777 51.2222 76.7222 51.2778 76.6667 51.3333z"/>
<path style="fill:#ede2cd; stroke:none;" d="M122.667 51.3333C122.222 51.7778 123.278 51.7222 123.333 51.6667C123.778 51.2223 122.722 51.2777 122.667 51.3333z"/>
<path style="fill:#d4bc8c; stroke:none;" d="M146 51L147 52L146 51z"/>
<path style="fill:#d6be8f; stroke:none;" d="M50 52L51 53L50 52z"/>
<path style="fill:#e6d8bb; stroke:none;" d="M74 52L75 53L74 52z"/>
<path style="fill:#ceb279; stroke:none;" d="M75 52L76 53L75 52z"/>
<path style="fill:#cbae72; stroke:none;" d="M123 52L124 53L123 52z"/>
<path style="fill:#d0b680; stroke:none;" d="M147 52L148 53L147 52z"/>
<path style="fill:#c9aa6b; stroke:none;" d="M49 53L50 54L49 53z"/>
<path style="fill:#dac499; stroke:none;" d="M73 53L74 54L73 53z"/>
<path style="fill:#d5bd8c; stroke:none;" d="M125 53L126 54L125 53z"/>
<path style="fill:#c9ab6d; stroke:none;" d="M148 53L149 54L148 53z"/>
<path style="fill:#c29f57; stroke:none;" d="M48 54L49 55L48 54z"/>
<path style="fill:#c8a96a; stroke:none;" d="M72 54L73 55L72 54z"/>
<path style="fill:#d2b783; stroke:none;" d="M94 54C97.4324 55.4403 101.3 55 105 55C101.568 53.5597 97.7002 54 94 54z"/>
<path style="fill:#e4d5b6; stroke:none;" d="M127 54L128 55L127 54z"/>
<path style="fill:#be994e; stroke:none;" d="M47 55L48 56L47 55z"/>
<path style="fill:#dbc69c; stroke:none;" d="M70 55L71 56L70 55z"/>
<path style="fill:#c7a665; stroke:none;" d="M89.6667 55.3333C89.2222 55.7778 90.2778 55.7222 90.3333 55.6667C90.7777 55.2223 89.7222 55.2778 89.6667 55.3333z"/>
<path style="fill:#f2eadc; stroke:none;" d="M91 55C95.9741 57.0872 102.638 56 108 56C103.026 53.9128 96.362 55 91 55z"/>
<path style="fill:#ccaf74; stroke:none;" d="M108 55C109.248 55.6848 109.548 55.7488 111 56C109.752 55.3152 109.451 55.2512 108 55z"/>
<path style="fill:#d6bf91; stroke:none;" d="M128 55L129 56L128 55z"/>
<path style="fill:#e0ceaa; stroke:none;" d="M149 55L150 56L149 55z"/>
<path style="fill:#d8c193; stroke:none;" d="M47 56L48 57L47 56z"/>
<path style="fill:#d6be8f; stroke:none;" d="M69 56L70 57L69 56z"/>
<path style="fill:#c7a766; stroke:none;" d="M86.6667 56.3333C86.2222 56.7778 87.2778 56.7222 87.3333 56.6667C87.7777 56.2222 86.7222 56.2778 86.6667 56.3333z"/>
<path style="fill:#e0ceab; stroke:none;" d="M88 56C89.2484 56.6848 89.5484 56.7488 91 57C89.7517 56.3152 89.4515 56.2512 88 56z"/>
<path style="fill:#ffffff; stroke:none;" d="M63 126C67.9296 125.492 75.3433 122.938 77.3966 117.896C81.1564 108.663 75.4231 96.7545 78.7539 87.2855C79.7701 84.3963 81.6247 81.412 83.5324 79.0386C95.0325 64.7312 112.359 70.034 120 85C123.666 84.2709 131.973 81.2366 132.468 76.7909C133.136 70.8012 123.504 62.5626 118.999 59.9552C100.216 49.0842 72.0194 58.2121 64.8495 79C60.032 92.9676 63 111.405 63 126z"/>
<path style="fill:#eee4d0; stroke:none;" d="M108 56C109.248 56.6848 109.548 56.7488 111 57C109.752 56.3152 109.451 56.2512 108 56z"/>
<path style="fill:#d7bf90; stroke:none;" d="M111 56C112.458 57.0811 113.248 57.4361 115 58C113.457 56.7333 112.952 56.5108 111 56z"/>
<path style="fill:#d2b883; stroke:none;" d="M129 56L130 57L129 56z"/>
<path style="fill:#d0b57f; stroke:none;" d="M150 56L151 57L150 56z"/>
<path style="fill:#cfb47c; stroke:none;" d="M46 57L47 58L46 57z"/>
<path style="fill:#d3ba87; stroke:none;" d="M68 57L69 58L68 57z"/>
<path style="fill:#c9a96a; stroke:none;" d="M84.6667 57.3333C84.2222 57.7778 85.2778 57.7222 85.3333 57.6667C85.7777 57.2223 84.7222 57.2778 84.6667 57.3333z"/>
<path style="fill:#eee5d1; stroke:none;" d="M86.6667 57.3333C86.2222 57.7778 87.2778 57.7222 87.3333 57.6667C87.7777 57.2223 86.7222 57.2778 86.6667 57.3333z"/>
<path style="fill:#b58b36; stroke:none;" d="M115.667 57.3333C115.222 57.7778 116.278 57.7222 116.333 57.6667C116.778 57.2223 115.722 57.2778 115.667 57.3333z"/>
<path style="fill:#d1b783; stroke:none;" d="M130 57L131 58L130 57z"/>
<path style="fill:#c3a15b; stroke:none;" d="M151 57L152 58L151 57z"/>
<path style="fill:#f2ebdd; stroke:none;" d="M46 58C45.0143 59.4785 45 59.2032 45 61C46.2892 59.5574 46.4009 59.7663 46 58z"/>
<path style="fill:#ccad72; stroke:none;" d="M67 58L68 59L67 58z"/>
<path style="fill:#c7a766; stroke:none;" d="M83 58L84 59L83 58z"/>
<path style="fill:#dcc89f; stroke:none;" d="M116 58L117 59L116 58z"/>
<path style="fill:#cdb177; stroke:none;" d="M131 58L132 59L131 58z"/>
<path style="fill:#dbc79e; stroke:none;" d="M151 58L152 59L151 58z"/>
<path style="fill:#c7a767; stroke:none;" d="M81 59L82 60L81 59z"/>
<path style="fill:#ddc9a2; stroke:none;" d="M118 59L119 60L118 59z"/>
<path style="fill:#c7a766; stroke:none;" d="M132 59L133 60L132 59z"/>
<path style="fill:#e5d6b8; stroke:none;" d="M152.333 59.6667C152.278 59.7222 152.222 60.7778 152.667 60.3333C152.722 60.2778 152.778 59.2223 152.333 59.6667z"/>
<path style="fill:#c2a05a; stroke:none;" d="M44 60L45 61L44 60z"/>
<path style="fill:#c5a462; stroke:none;" d="M65 60L66 61L65 60z"/>
<path style="fill:#be994e; stroke:none;" d="M79 60L80 61L79 60z"/>
<path style="fill:#d2b985; stroke:none;" d="M120 60L121 61L120 60z"/>
<path style="fill:#c5a461; stroke:none;" d="M133 60L134 61L133 60z"/>
<path style="fill:#c19e56; stroke:none;" d="M153 60L154 61L153 60z"/>
<path style="fill:#d0b57e; stroke:none;" d="M43 61L42 65C43.303 63.3324 43.553 63.0078 43 61z"/>
<path style="fill:#e2d1af; stroke:none;" d="M44 61L45 62L44 61z"/>
<path style="fill:#cdb076; stroke:none;" d="M64 61L65 62L64 61z"/>
<path style="fill:#cbad71; stroke:none;" d="M78 61L79 62L78 61z"/>
<path style="fill:#d9c499; stroke:none;" d="M121 61L122 62L121 61z"/>
<path style="fill:#c5a461; stroke:none;" d="M134 61L135 62L134 61z"/>
<path style="fill:#ede4cf; stroke:none;" d="M153.333 61.6667C153.278 61.7222 153.222 62.7778 153.667 62.3333C153.722 62.2777 153.778 61.2223 153.333 61.6667z"/>
<path style="fill:#d3ba87; stroke:none;" d="M63 62L64 63L63 62z"/>
<path style="fill:#d3ba88; stroke:none;" d="M77 62L78 63L77 62z"/>
<path style="fill:#e2d1af; stroke:none;" d="M122 62L123 63L122 62z"/>
<path style="fill:#c3a15c; stroke:none;" d="M123 62L124 63L123 62z"/>
<path style="fill:#c9aa6c; stroke:none;" d="M135 62L136 63L135 62z"/>
<path style="fill:#c3a05b; stroke:none;" d="M154 62L155 63L154 62z"/>
<path style="fill:#d8c294; stroke:none;" d="M62 63L63 64L62 63z"/>
<path style="fill:#e2d0af; stroke:none;" d="M76 63L77 64L76 63z"/>
<path style="fill:#c4a25c; stroke:none;" d="M124 63L125 64L124 63z"/>
<path style="fill:#d1b783; stroke:none;" d="M136 63L137 64L136 63z"/>
<path style="fill:#e0cfac; stroke:none;" d="M61 64L62 65L61 64z"/>
<path style="fill:#b1852a; stroke:none;" d="M62 64C61.0143 65.4785 61 65.2032 61 67C62.2892 65.5574 62.4009 65.7663 62 64z"/>
<path style="fill:#bd974b; stroke:none;" d="M74 64L75 65L74 64z"/>
<path style="fill:#c3a15c; stroke:none;" d="M125 64L126 65L125 64z"/>
<path style="fill:#d5bd8d; stroke:none;" d="M137 64L138 65L137 64z"/>
<path style="fill:#f0e8d6; stroke:none;" d="M42.3333 65.6667C42.2777 65.7223 42.2222 66.7778 42.6667 66.3333C42.7222 66.2778 42.7778 65.2222 42.3333 65.6667z"/>
<path style="fill:#c6a563; stroke:none;" d="M73 65L74 66L73 65z"/>
<path style="fill:#c6a564; stroke:none;" d="M126 65L127 66L126 65z"/>
<path style="fill:#b3872f; stroke:none;" d="M137 65C137.684 66.58 137.805 66.7772 139 68C138.316 66.42 138.195 66.2228 137 65z"/>
<path style="fill:#dfcca6; stroke:none;" d="M138 65L139 66L138 65z"/>
<path style="fill:#dbc69d; stroke:none;" d="M155 65L156 66L155 65z"/>
<path style="fill:#e3d2b1; stroke:none;" d="M41.3333 66.6667C41.2777 66.7223 41.2222 67.7777 41.6667 67.3333C41.7222 67.2778 41.7778 66.2222 41.3333 66.6667z"/>
<path style="fill:#d0b57e; stroke:none;" d="M60 66L61 67L60 66z"/>
<path style="fill:#c9a96a; stroke:none;" d="M72 66L73 67L72 66z"/>
<path style="fill:#e7dabe; stroke:none;" d="M73 66L74 67L73 66z"/>
<path style="fill:#e7d8bc; stroke:none;" d="M126 66L127 67L126 66z"/>
<path style="fill:#c6a563; stroke:none;" d="M127 66L128 67L127 66z"/>
<path style="fill:#d5bc8b; stroke:none;" d="M156.333 66.6667C156.278 66.7222 156.222 67.7778 156.667 67.3333C156.722 67.2778 156.778 66.2222 156.333 66.6667z"/>
<path style="fill:#e8dbc0; stroke:none;" d="M59 67L60 68L59 67z"/>
<path style="fill:#c8a868; stroke:none;" d="M71 67L72 68L71 67z"/>
<path style="fill:#e4d4b5; stroke:none;" d="M127 67L128 68L127 67z"/>
<path style="fill:#c19d56; stroke:none;" d="M128 67L129 68L128 67z"/>
<path style="fill:#d5bd8c; stroke:none;" d="M139 67L140 68L139 67z"/>
<path style="fill:#c7a766; stroke:none;" d="M40 68L41 69L40 68z"/>
<path style="fill:#f1e9d8; stroke:none;" d="M41 68C40.0143 69.4785 40 69.2032 40 71C41.2892 69.5574 41.4009 69.7663 41 68z"/>
<path style="fill:#c9aa6b; stroke:none;" d="M59 68L60 69L59 68z"/>
<path style="fill:#c4a15b; stroke:none;" d="M70 68L71 69L70 68z"/>
<path style="fill:#f4eee1; stroke:none;" d="M128 68C128.684 69.58 128.805 69.7772 130 71C129.316 69.4201 129.195 69.2227 128 68z"/>
<path style="fill:#d1b782; stroke:none;" d="M157 68L157 71C157.696 69.4463 157.696 69.5537 157 68z"/>
<path style="fill:#d9c498; stroke:none;" d="M58 69C57.0143 70.4785 57 70.2032 57 72C58.2892 70.5574 58.4009 70.7663 58 69z"/>
<path style="fill:#d2b985; stroke:none;" d="M140 69L141 70L140 69z"/>
<path style="fill:#e1d0ac; stroke:none;" d="M69 70L70 71L69 70z"/>
<path style="fill:#e1d0ae; stroke:none;" d="M95 70C97.3316 70.9845 99.4567 70.9813 102 71C99.6684 70.0155 97.5434 70.0187 95 70z"/>
<path style="fill:#eee4d1; stroke:none;" d="M102.667 70.3333C102.222 70.7778 103.278 70.7222 103.333 70.6667C103.778 70.2223 102.722 70.2777 102.667 70.3333z"/>
<path style="fill:#cbae73; stroke:none;" d="M130 70L131 71L130 70z"/>
<path style="fill:#d7c193; stroke:none;" d="M141.333 70.6667C141.278 70.7222 141.222 71.7778 141.667 71.3333C141.722 71.2778 141.778 70.2222 141.333 70.6667z"/>
<path style="fill:#b68c38; stroke:none;" d="M38 71L38 74C39.0155 72.8606 39.3087 72.3884 40 71L38 71z"/>
<path style="fill:#ddc9a1; stroke:none;" d="M68 71C67.0143 72.4785 67 72.2032 67 74C68.2892 72.5574 68.4009 72.7663 68 71z"/>
<path style="fill:#decca6; stroke:none;" d="M90 72C91.8092 72.5743 92.0688 72.4653 94 72C92.3407 71.5935 91.7583 71.6914 90 72z"/>
<path style="fill:#bb9445; stroke:none;" d="M94 71C97.4324 72.4403 101.3 72 105 72C101.568 70.5597 97.7002 71 94 71z"/>
<path style="fill:#e2d1af; stroke:none;" d="M105.667 71.3333C105.222 71.7778 106.278 71.7222 106.333 71.6667C106.778 71.2222 105.722 71.2778 105.667 71.3333z"/>
<path style="fill:#dcc9a0; stroke:none;" d="M158.333 71.6667C158.278 71.7222 158.222 72.7778 158.667 72.3333C158.722 72.2777 158.778 71.2223 158.333 71.6667z"/>
<path style="fill:#bb9344; stroke:none;" d="M57.3333 72.6667C57.2777 72.7223 57.2222 73.7777 57.6667 73.3333C57.7222 73.2778 57.7778 72.2222 57.3333 72.6667z"/>
<path style="fill:#cdb076; stroke:none;" d="M106.667 72.3333C106.222 72.7778 107.278 72.7223 107.333 72.6667C107.778 72.2222 106.722 72.2778 106.667 72.3333z"/>
<path style="fill:#ede3cf; stroke:none;" d="M108.667 72.3333C108.222 72.7778 109.278 72.7222 109.333 72.6667C109.778 72.2222 108.722 72.2778 108.667 72.3333z"/>
<path style="fill:#d4bb89; stroke:none;" d="M131 72L132 73L131 72z"/>
<path style="fill:#dac499; stroke:none;" d="M142 72L142 75C142.696 73.4463 142.696 73.5537 142 72z"/>
<path style="fill:#c9aa6b; stroke:none;" d="M56.3333 73.6667C56.2777 73.7223 56.2222 74.7778 56.6667 74.3333C56.7222 74.2778 56.7778 73.2222 56.3333 73.6667z"/>
<path style="fill:#e4d4b6; stroke:none;" d="M89 73L90 74L89 73z"/>
<path style="fill:#c19e56; stroke:none;" d="M109 73L110 74L109 73z"/>
<path style="fill:#d9c397; stroke:none;" d="M132.333 73.6667C132.278 73.7222 132.222 74.7778 132.667 74.3333C132.722 74.2778 132.778 73.2222 132.333 73.6667z"/>
<path style="fill:#d7c194; stroke:none;" d="M38.3333 74.6667C38.2777 74.7223 38.2223 75.7777 38.6667 75.3333C38.7222 75.2778 38.7778 74.2222 38.3333 74.6667z"/>
<path style="fill:#e5d6b7; stroke:none;" d="M66.3333 74.6667C66.2778 74.7222 66.2222 75.7778 66.6667 75.3333C66.7223 75.2777 66.7777 74.2223 66.3333 74.6667z"/>
<path style="fill:#cdb076; stroke:none;" d="M88 74L89 75L88 74z"/>
<path style="fill:#cdb077; stroke:none;" d="M111 74L112 75L111 74z"/>
<path style="fill:#d7c092; stroke:none;" d="M159.333 74.6667C159.278 74.7222 159.222 75.7778 159.667 75.3333C159.722 75.2777 159.778 74.2223 159.333 74.6667z"/>
<path style="fill:#bf9b51; stroke:none;" d="M37.3333 75.6667C37.2777 75.7223 37.2222 76.7777 37.6667 76.3333C37.7222 76.2778 37.7778 75.2222 37.3333 75.6667z"/>
<path style="fill:#b48a33; stroke:none;" d="M56.3333 75.6667C56.2777 75.7223 56.2222 76.7778 56.6667 76.3333C56.7222 76.2778 56.7778 75.2222 56.3333 75.6667z"/>
<path style="fill:#e1d0ae; stroke:none;" d="M86 75L87 76L86 75z"/>
<path style="fill:#c5a461; stroke:none;" d="M112 75L113 76L112 75z"/>
<path style="fill:#e2d1af; stroke:none;" d="M113 75L114 76L113 75z"/>
<path style="fill:#d9c295; stroke:none;" d="M133 75L133 79C133.71 77.2405 133.71 76.7595 133 75z"/>
<path style="fill:#ceb279; stroke:none;" d="M143.333 75.6667C143.278 75.7222 143.222 76.7778 143.667 76.3333C143.722 76.2777 143.778 75.2223 143.333 75.6667z"/>
<path style="fill:#f0e8d7; stroke:none;" d="M38.3333 76.6667C38.2778 76.7222 38.2222 77.7778 38.6667 77.3333C38.7222 77.2778 38.7778 76.2222 38.3333 76.6667z"/>
<path style="fill:#f3ecdd; stroke:none;" d="M54 76L53 82C54.495 79.8149 54.8888 78.508 54 76z"/>
<path style="fill:#c4a35f; stroke:none;" d="M55.3333 76.6667C55.2778 76.7222 55.2222 77.7778 55.6667 77.3333C55.7222 77.2778 55.7778 76.2222 55.3333 76.6667z"/>
<path style="fill:#cfb37b; stroke:none;" d="M65 76L66 77L65 76z"/>
<path style="fill:#e1cfac; stroke:none;" d="M85 76L86 77L85 76z"/>
<path style="fill:#c19e57; stroke:none;" d="M113 76L114 77L113 76z"/>
<path style="fill:#e1d0ad; stroke:none;" d="M114 76L115 77L114 76z"/>
<path style="fill:#d1b681; stroke:none;" d="M37.3333 77.6667C37.2777 77.7223 37.2222 78.7777 37.6667 78.3333C37.7222 78.2778 37.7778 77.2222 37.3333 77.6667z"/>
<path style="fill:#e5d7b8; stroke:none;" d="M84 77L85 78L84 77z"/>
<path style="fill:#b78e3b; stroke:none;" d="M143.333 77.6667C143.278 77.7222 143.222 78.7778 143.667 78.3333C143.722 78.2778 143.778 77.2223 143.333 77.6667z"/>
<path style="fill:#d8c295; stroke:none;" d="M64.3333 78.6667C64.2778 78.7222 64.2222 79.7778 64.6667 79.3333C64.7223 79.2777 64.7778 78.2223 64.3333 78.6667z"/>
<path style="fill:#e8dabf; stroke:none;" d="M83 78L84 79L83 78z"/>
<path style="fill:#ceb37c; stroke:none;" d="M144.333 78.6667C144.278 78.7222 144.222 79.7777 144.667 79.3333C144.722 79.2778 144.778 78.2223 144.333 78.6667z"/>
<path style="fill:#d0b580; stroke:none;" d="M160.333 78.6667C160.278 78.7222 160.222 79.7778 160.667 79.3333C160.722 79.2777 160.778 78.2222 160.333 78.6667z"/>
<path style="fill:#ece2cc; stroke:none;" d="M37 79L37 83C37.7102 81.2405 37.7102 80.7595 37 79z"/>
<path style="fill:#bb9546; stroke:none;" d="M63 79L63 82C63.6961 80.4463 63.6961 80.5537 63 79z"/>
<path style="fill:#c7a766; stroke:none;" d="M83 79L84 80L83 79z"/>
<path style="fill:#c9aa6b; stroke:none;" d="M116 79L117 80L116 79z"/>
<path style="fill:#e3d2b1; stroke:none;" d="M131 79L132 80L131 79z"/>
<path style="fill:#c4a25d; stroke:none;" d="M132 79L133 80L132 79z"/>
<path style="fill:#c3a05b; stroke:none;" d="M36.3333 80.6667C36.2777 80.7223 36.2222 81.7778 36.6667 81.3333C36.7222 81.2778 36.7778 80.2222 36.3333 80.6667z"/>
<path style="fill:#c09c53; stroke:none;" d="M54.3333 80.6667C54.2777 80.7223 54.2222 81.7778 54.6667 81.3333C54.7222 81.2778 54.7778 80.2222 54.3333 80.6667z"/>
<path style="fill:#d1b782; stroke:none;" d="M82 80L83 81L82 80z"/>
<path style="fill:#d1b883; stroke:none;" d="M117 80L118 81L117 80z"/>
<path style="fill:#e6d7b9; stroke:none;" d="M129 80L130 81L129 80z"/>
<path style="fill:#c29f57; stroke:none;" d="M144.333 80.6667C144.278 80.7222 144.222 81.7778 144.667 81.3333C144.722 81.2778 144.778 80.2223 144.333 80.6667z"/>
<path style="fill:#e8dabf; stroke:none;" d="M160.333 80.6667C160.278 80.7222 160.222 81.7778 160.667 81.3333C160.722 81.2777 160.778 80.2222 160.333 80.6667z"/>
<path style="fill:#ddcaa2; stroke:none;" d="M81 81L82 82L81 81z"/>
<path style="fill:#c7a767; stroke:none;" d="M105 81C106.458 82.0811 107.248 82.4361 109 83C107.457 81.7333 106.952 81.5107 105 81z"/>
<path style="fill:#ddc9a1; stroke:none;" d="M118 81L119 82L118 81z"/>
<path style="fill:#decba5; stroke:none;" d="M126 83C127.58 82.3164 127.777 82.1952 129 81C127.42 81.6836 127.223 81.8048 126 83z"/>
<path style="fill:#bd974a; stroke:none;" d="M161 81L161 84C161.696 82.4463 161.696 82.5537 161 81z"/>
<path style="fill:#d1b782; stroke:none;" d="M36 82L36 85C36.6961 83.4463 36.6961 83.5537 36 82z"/>
<path style="fill:#e1cfac; stroke:none;" d="M53.3333 82.6667C53.2777 82.7223 53.2223 83.7777 53.6667 83.3333C53.7222 83.2778 53.7778 82.2222 53.3333 82.6667z"/>
<path style="fill:#b99140; stroke:none;" d="M62.3333 82.6667C62.2777 82.7223 62.2223 83.7777 62.6667 83.3333C62.7222 83.2778 62.7778 82.2222 62.3333 82.6667z"/>
<path style="fill:#dbc79e; stroke:none;" d="M63.3333 82.6667C63.2777 82.7223 63.2223 83.7777 63.6667 83.3333C63.7222 83.2778 63.7778 82.2222 63.3333 82.6667z"/>
<path style="fill:#b78d39; stroke:none;" d="M81.3333 82.6667C81.2778 82.7222 81.2222 83.7778 81.6667 83.3333C81.7223 83.2777 81.7778 82.2223 81.3333 82.6667z"/>
<path style="fill:#d7c091; stroke:none;" d="M103.667 82.3333C103.222 82.7778 104.278 82.7222 104.333 82.6667C104.778 82.2222 103.722 82.2778 103.667 82.3333z"/>
<path style="fill:#efe6d4; stroke:none;" d="M105.667 82.3333C105.222 82.7778 106.278 82.7222 106.333 82.6667C106.778 82.2222 105.722 82.2778 105.667 82.3333z"/>
<path style="fill:#b68d38; stroke:none;" d="M118.333 82.6667C118.278 82.7222 118.222 83.7778 118.667 83.3333C118.722 83.2778 118.778 82.2222 118.333 82.6667z"/>
<path style="fill:#c5a461; stroke:none;" d="M143 82L144 83L143 82z"/>
<path style="fill:#dcc9a0; stroke:none;" d="M144 82L145 83L144 82z"/>
<path style="fill:#e1d0ac; stroke:none;" d="M80 83L81 84L80 83z"/>
<path style="fill:#d2b884; stroke:none;" d="M102 83L103 84L102 83z"/>
<path style="fill:#f3ecdd; stroke:none;" d="M107 83C107 88.2494 104.865 99.387 109 103C107.467 96.5601 109.523 89.0128 107 83z"/>
<path style="fill:#d3ba87; stroke:none;" d="M108 83L108 102C110.02 97.1871 110.02 87.8129 108 83z"/>
<path style="fill:#dfcea9; stroke:none;" d="M119 83L120 84L119 83z"/>
<path style="fill:#c7a867; stroke:none;" d="M125 83L126 84L125 83z"/>
<path style="fill:#bd9649; stroke:none;" d="M141 83L142 84L141 83z"/>
<path style="fill:#dac599; stroke:none;" d="M142 83L143 84L142 83z"/>
<path style="fill:#e5d7b9; stroke:none;" d="M52 84L52 88C52.7102 86.2405 52.7102 85.7595 52 84z"/>
<path style="fill:#d0b57f; stroke:none;" d="M53.3333 84.6667C53.2777 84.7223 53.2222 85.7777 53.6667 85.3333C53.7222 85.2778 53.7778 84.2222 53.3333 84.6667z"/>
<path style="fill:#d2b985; stroke:none;" d="M62 84L62 88C62.7102 86.2405 62.7102 85.7595 62 84z"/>
<path style="fill:#f0e7d6; stroke:none;" d="M63.3333 84.6667C63.2777 84.7223 63.2222 85.7777 63.6667 85.3333C63.7222 85.2778 63.7778 84.2222 63.3333 84.6667z"/>
<path style="fill:#cfb37a; stroke:none;" d="M100 84L101 85L100 84z"/>
<path style="fill:#ccae73; stroke:none;" d="M123 84L124 85L123 84z"/>
<path style="fill:#d8c295; stroke:none;" d="M140 84L141 85L140 84z"/>
<path style="fill:#ceb279; stroke:none;" d="M161 84L161 87C161.696 85.4463 161.696 85.5537 161 84z"/>
<path style="fill:#ece1cb; stroke:none;" d="M36 85L36 164C38.4972 158.049 37 149.42 37 143L37 104C37 98.113 38.2922 90.4625 36 85z"/>
<path style="fill:#c9aa6a; stroke:none;" d="M98 85L99 86L98 85z"/>
<path style="fill:#c7a765; stroke:none;" d="M120 85C121.248 85.6848 121.548 85.7488 123 86C121.752 85.3152 121.452 85.2512 120 85z"/>
<path style="fill:#d1b681; stroke:none;" d="M138 85L139 86L138 85z"/>
<path style="fill:#b08429; stroke:none;" d="M53 86L53 156C55.2922 150.538 54 142.887 54 137L54 103C54 97.6497 55.0851 90.9691 53 86z"/>
<path style="fill:#e9ddc4; stroke:none;" d="M78 86L78 119C80.7006 112.564 79.0005 102.951 79 96C78.9998 92.5814 79.3283 89.1656 78 86z"/>
<path style="fill:#d5bd8c; stroke:none;" d="M79.3333 86.6667C79.2778 86.7222 79.2222 87.7778 79.6667 87.3333C79.7223 87.2777 79.7778 86.2223 79.3333 86.6667z"/>
<path style="fill:#ccaf75; stroke:none;" d="M94 87C95.8092 87.5743 96.0688 87.4653 98 87C96.3407 86.5935 95.7582 86.6914 94 87z"/>
<path style="fill:#decaa4; stroke:none;" d="M136.667 86.3333C136.222 86.7778 137.278 86.7222 137.333 86.6667C137.778 86.2222 136.722 86.2778 136.667 86.3333z"/>
<path style="fill:#bf9a50; stroke:none;" d="M134 87L135 88L134 87z"/>
<path style="fill:#d6be8f; stroke:none;" d="M135 87L136 88L135 87z"/>
<path style="fill:#e1d0ad; stroke:none;" d="M161 87L161 92C161.83 89.9695 161.83 89.0305 161 87z"/>
<path style="fill:#bd974b; stroke:none;" d="M162 87L162 92C162.83 89.9695 162.83 89.0305 162 87z"/>
<path style="fill:#dac59a; stroke:none;" d="M52 88L52 157C54.0851 152.031 53 145.35 53 140L53 106C53 100.381 54.1889 93.2165 52 88z"/>
<path style="fill:#b78d39; stroke:none;" d="M61 88L61 126C64.105 118.6 62 107.007 62 99C62 95.2976 62.4412 91.4346 61 88z"/>
<path style="fill:#decba6; stroke:none;" d="M62 88L62 126C65.105 118.6 63 107.007 63 99C63 95.2976 63.4412 91.4346 62 88z"/>
<path style="fill:#b58a35; stroke:none;" d="M79 88L79 118C80.3283 114.834 79.9998 111.419 80 108C80.0004 101.846 81.3948 93.707 79 88z"/>
<path style="fill:#c4a25e; stroke:none;" d="M93 88L94 89L93 88z"/>
<path style="fill:#e5d6b8; stroke:none;" d="M94 88L95 89L94 88z"/>
<path style="fill:#d0b57f; stroke:none;" d="M133 88L134 89L133 88z"/>
<path style="fill:#f3ecdd; stroke:none;" d="M92 89L92 122C94.7006 115.564 93.0005 105.951 93 99C92.9998 95.5814 93.3283 92.1656 92 89z"/>
<path style="fill:#ceb27a; stroke:none;" d="M131 89L132 90L131 89z"/>
<path style="fill:#bc974a; stroke:none;" d="M35 90L35 164C37.1889 158.784 36 151.619 36 146L36 110C36 103.846 37.3949 95.7072 35 90z"/>
<path style="fill:#d3ba87; stroke:none;" d="M91 90L91 122C93.599 115.806 92.0004 106.686 92 100C91.9998 96.5814 92.3283 93.1656 91 90z"/>
<path style="fill:#c9ab6d; stroke:none;" d="M129 90L130 91L129 90z"/>
<path style="fill:#cfb47d; stroke:none;" d="M126 93C127.58 92.3164 127.777 92.1952 129 91C127.42 91.6836 127.223 91.8048 126 93z"/>
<path style="fill:#dbc79d; stroke:none;" d="M160 92L161 93L160 92z"/>
<path style="fill:#c6a563; stroke:none;" d="M124 93L125 94L124 93z"/>
<path style="fill:#e5d5b7; stroke:none;" d="M158 93L159 94L158 93z"/>
<path style="fill:#c5a360; stroke:none;" d="M159 93L160 94L159 93z"/>
<path style="fill:#c4a25d; stroke:none;" d="M122 94L123 95L122 94z"/>
<path style="fill:#e2d1b0; stroke:none;" d="M123 94L124 95L123 94z"/>
<path style="fill:#ccae72; stroke:none;" d="M157 94L158 95L157 94z"/>
<path style="fill:#c19c54; stroke:none;" d="M120 95L121 96L120 95z"/>
<path style="fill:#f7f1e8; stroke:none;" d="M120 97C121.58 96.3164 121.777 96.1951 123 95C121.42 95.6836 121.223 95.8048 120 97z"/>
<path style="fill:#bd984c; stroke:none;" d="M155.667 95.3333C155.222 95.7778 156.278 95.7222 156.333 95.6667C156.778 95.2222 155.722 95.2777 155.667 95.3333z"/>
<path style="fill:#c8a969; stroke:none;" d="M117 98C118.58 97.3164 118.777 97.1952 120 96C118.42 96.6836 118.223 96.8048 117 98z"/>
<path style="fill:#ceb279; stroke:none;" d="M152 98C153.58 97.3165 153.777 97.1951 155 96C153.42 96.6836 153.223 96.8048 152 98z"/>
<path style="fill:#e4d6b7; stroke:none;" d="M151 97L152 98L151 97z"/>
<path style="fill:#bd984c; stroke:none;" d="M115 98L116 99L115 98z"/>
<path style="fill:#dfcda8; stroke:none;" d="M116 98L117 99L116 98z"/>
<path style="fill:#d4bc8b; stroke:none;" d="M150 98L151 99L150 98z"/>
<path style="fill:#d9c498; stroke:none;" d="M114 99L115 100L114 99z"/>
<path style="fill:#d9c398; stroke:none;" d="M148 99L149 100L148 99z"/>
<path style="fill:#e0ceaa; stroke:none;" d="M110 101C111.809 101.574 112.069 101.465 114 101C112.341 100.594 111.758 100.691 110 101z"/>
<path style="fill:#dbc69b; stroke:none;" d="M146 100L147 101L146 100z"/>
<path style="fill:#d7bf91; stroke:none;" d="M142 102C143.809 102.574 144.069 102.465 146 102C144.341 101.594 143.758 101.691 142 102z"/>
<path style="fill:#c9aa6c; stroke:none;" d="M160 101C161.248 101.685 161.548 101.749 163 102C161.752 101.315 161.452 101.251 160 101z"/>
<path style="fill:#dac499; stroke:none;" d="M109 102L110 103L109 102z"/>
<path style="fill:#c7a666; stroke:none;" d="M158.667 102.333C158.222 102.778 159.278 102.722 159.333 102.667C159.778 102.222 158.722 102.278 158.667 102.333z"/>
<path style="fill:#f2eadb; stroke:none;" d="M160 102C161.248 102.685 161.548 102.749 163 103C161.752 102.315 161.452 102.251 160 102z"/>
<path style="fill:#d1b782; stroke:none;" d="M163 102L164 103L163 102z"/>
<path style="fill:#ddcaa4; stroke:none;" d="M141 103L142 104L141 103z"/>
<path style="fill:#c09b53; stroke:none;" d="M157 103L158 104L157 103z"/>
<path style="fill:#ddc9a2; stroke:none;" d="M158 103L159 104L158 103z"/>
<path style="fill:#ffffff; stroke:none;" d="M93 164L93 184C97.8354 182.894 105.438 179.965 107.397 174.957C109.265 170.18 108 163.066 108 158C108 153.938 109.1 147.852 106.972 144.21C105.314 141.372 101.719 139.864 99 138.269C94.3365 135.534 89.8869 132.409 85 130.059C80.0021 127.655 76.3607 130.121 72.0586 132.873C70.3873 133.943 68.0912 135.353 68.7515 137.715C69.9567 142.025 80.5656 146.091 84 149C78.8828 150.683 74.669 154.038 70 156.667C63.2816 160.449 56.4921 163.967 50 168.142C47.0279 170.053 41.1974 172.105 39.6034 175.415C37.2863 180.227 40.121 187.525 41.6381 192.17C46.6449 207.5 55.2516 220.88 70 228.673C103.535 246.391 148.75 231.268 160.485 193.91C164.014 182.677 163 170.599 163 159L163 103C158.25 103.49 151.648 105.905 149.028 110.26C147.391 112.98 148 116.966 148 120L148 140C148 165.03 151.881 192.756 129.996 210.336C127.183 212.595 124.258 215.12 121 216.711C101.667 226.152 80.8316 221.354 66.0401 205.996C62.0362 201.839 54.065 192.574 55.7886 186.093C56.8108 182.25 61.873 180.413 65 178.694C74.0045 173.745 83.085 166.862 93 164z"/>
<path style="fill:#ece1cb; stroke:none;" d="M163 103L163 181C165.292 175.538 164 167.887 164 162L164 123C164 116.846 165.395 108.707 163 103z"/>
<path style="fill:#bc974a; stroke:none;" d="M164 103L164 175C166.085 170.031 165 163.35 165 158L165 122C165 116.113 166.292 108.462 164 103z"/>
<path style="fill:#e6d7ba; stroke:none;" d="M139 104L140 105L139 104z"/>
<path style="fill:#b8903e; stroke:none;" d="M136 106C138.462 106.697 139.665 106.11 142 105C139.726 104.591 138.219 105.212 136 106z"/>
<path style="fill:#dac59a; stroke:none;" d="M156 104L157 105L156 104z"/>
<path style="fill:#e6d8bb; stroke:none;" d="M137 105L138 106L137 105z"/>
<path style="fill:#d1b680; stroke:none;" d="M154 105L155 106L154 105z"/>
<path style="fill:#d5bc8c; stroke:none;" d="M151 108C152.58 107.316 152.777 107.195 154 106C152.42 106.684 152.223 106.805 151 108z"/>
<path style="fill:#e1d0af; stroke:none;" d="M134 107L135 108L134 107z"/>
<path style="fill:#c9a96a; stroke:none;" d="M135 107L136 108L135 107z"/>
<path style="fill:#be984d; stroke:none;" d="M150 107L151 108L150 107z"/>
<path style="fill:#ceb27a; stroke:none;" d="M133 108L134 109L133 108z"/>
<path style="fill:#ccae73; stroke:none;" d="M149 108L150 109L149 108z"/>
<path style="fill:#cfb37a; stroke:none;" d="M131 109L132 110L131 109z"/>
<path style="fill:#dac59a; stroke:none;" d="M147 109L147 178C149.292 172.538 148 164.887 148 159C148 143.133 145.32 124.455 149 109L147 109z"/>
<path style="fill:#d6be8d; stroke:none;" d="M129 110L130 111L129 110z"/>
<path style="fill:#b08429; stroke:none;" d="M146 110L146 178C147.981 173.28 147 167.08 147 162L147 128C147 122.381 148.189 115.217 146 110z"/>
<path style="fill:#d3b985; stroke:none;" d="M126 113C127.58 112.316 127.777 112.195 129 111C127.42 111.684 127.223 111.805 126 113z"/>
<path style="fill:#e9dcc3; stroke:none;" d="M125 112L126 113L125 112z"/>
<path style="fill:#dcc89f; stroke:none;" d="M124 113L125 114L124 113z"/>
<path style="fill:#ddcaa2; stroke:none;" d="M122 114L123 115L122 114z"/>
<path style="fill:#e3d3b2; stroke:none;" d="M120 115L121 116L120 115z"/>
<path style="fill:#dac69c; stroke:none;" d="M117 118C118.58 117.316 118.777 117.195 120 116C118.42 116.684 118.223 116.805 117 118z"/>
<path style="fill:#cfb47c; stroke:none;" d="M116 118L117 119L116 118z"/>
<path style="fill:#e3d3b3; stroke:none;" d="M77 119L78 120L77 119z"/>
<path style="fill:#cfb47d; stroke:none;" d="M117 119L118 120L117 119z"/>
<path style="fill:#c5a35f; stroke:none;" d="M74 121C75.8092 121.574 76.0688 121.465 78 121C76.3407 120.594 75.7582 120.691 74 121z"/>
<path style="fill:#e2d1b0; stroke:none;" d="M118 120L119 121L118 120z"/>
<path style="fill:#ccaf73; stroke:none;" d="M119 120L120 121L119 120z"/>
<path style="fill:#c6a462; stroke:none;" d="M120.667 121.333C120.222 121.778 121.278 121.722 121.333 121.667C121.778 121.222 120.722 121.278 120.667 121.333z"/>
<path style="fill:#e3d3b2; stroke:none;" d="M72 122L73 123L72 122z"/>
<path style="fill:#ccaf75; stroke:none;" d="M73 122L74 123L73 122z"/>
<path style="fill:#d5bd8c; stroke:none;" d="M92 122L93 123L92 122z"/>
<path style="fill:#bd974b; stroke:none;" d="M122.667 122.333C122.222 122.778 123.278 122.722 123.333 122.667C123.778 122.222 122.722 122.278 122.667 122.333z"/>
<path style="fill:#d1b781; stroke:none;" d="M71 123L72 124L71 123z"/>
<path style="fill:#ceb27a; stroke:none;" d="M93 123L94 124L93 123z"/>
<path style="fill:#cdb075; stroke:none;" d="M124 123L125 124L124 123z"/>
<path style="fill:#d9c295; stroke:none;" d="M69 124L70 125L69 124z"/>
<path style="fill:#dac69c; stroke:none;" d="M95 124L96 125L95 124z"/>
<path style="fill:#cdb177; stroke:none;" d="M126 124L127 125L126 124z"/>
<path style="fill:#dbc79d; stroke:none;" d="M67 125L68 126L67 125z"/>
<path style="fill:#b48932; stroke:none;" d="M68.6667 125.333C68.2222 125.778 69.2778 125.722 69.3333 125.667C69.7778 125.222 68.7222 125.278 68.6667 125.333z"/>
<path style="fill:#cbad70; stroke:none;" d="M96 125L97 126L96 125z"/>
<path style="fill:#e0cfab; stroke:none;" d="M127 125L128 126L127 125z"/>
<path style="fill:#c9aa6b; stroke:none;" d="M128 125L129 126L128 125z"/>
<path style="fill:#c3a15c; stroke:none;" d="M62 126L63 127L62 126z"/>
<path style="fill:#eadfc7; stroke:none;" d="M63 126C64.2484 126.685 64.5484 126.749 66 127C64.7517 126.315 64.4515 126.251 63 126z"/>
<path style="fill:#b99140; stroke:none;" d="M66.6667 126.333C66.2222 126.778 67.2778 126.722 67.3333 126.667C67.7778 126.222 66.7222 126.278 66.6667 126.333z"/>
<path style="fill:#c29f58; stroke:none;" d="M97 126L98 127L97 126z"/>
<path style="fill:#dac499; stroke:none;" d="M98 126L99 127L98 126z"/>
<path style="fill:#c3a15c; stroke:none;" d="M129.667 126.333C129.222 126.778 130.278 126.722 130.333 126.667C130.778 126.222 129.722 126.278 129.667 126.333z"/>
<path style="fill:#c7a767; stroke:none;" d="M63 127C64.2484 127.685 64.5484 127.749 66 128C64.7517 127.315 64.4515 127.251 63 127z"/>
<path style="fill:#be994d; stroke:none;" d="M79 127C80.506 127.683 81.3148 127.826 83 128C81.4939 127.317 80.6852 127.174 79 127z"/>
<path style="fill:#d0b57f; stroke:none;" d="M99 127L100 128L99 127z"/>
<path style="fill:#f4eee2; stroke:none;" d="M100 127C101.223 128.195 101.42 128.316 103 129C101.777 127.805 101.58 127.684 100 127z"/>
<path style="fill:#e8dcc2; stroke:none;" d="M130 127L131 128L130 127z"/>
<path style="fill:#ba9343; stroke:none;" d="M131.667 127.333C131.222 127.778 132.278 127.722 132.333 127.667C132.778 127.222 131.722 127.278 131.667 127.333z"/>
<path style="fill:#d4bc8b; stroke:none;" d="M79 128L80 129L79 128z"/>
<path style="fill:#dbc59b; stroke:none;" d="M82 128L83 129L82 128z"/>
<path style="fill:#c9aa6b; stroke:none;" d="M133 128L133 131C133.696 129.446 133.696 129.554 133 128z"/>
<path style="fill:#d1b681; stroke:none;" d="M77 129L78 130L77 129z"/>
<path style="fill:#d7c091; stroke:none;" d="M84 129L85 130L84 129z"/>
<path style="fill:#c9aa6b; stroke:none;" d="M102 129L103 130L102 129z"/>
<path style="fill:#ccaf74; stroke:none;" d="M75 130L76 131L75 130z"/>
<path style="fill:#e6d8bc; stroke:none;" d="M85 130L86 131L85 130z"/>
<path style="fill:#ceb178; stroke:none;" d="M86 130L87 131L86 130z"/>
<path style="fill:#d5bd8c; stroke:none;" d="M104 130L105 131L104 130z"/>
<path style="fill:#d0b57e; stroke:none;" d="M72 133C73.58 132.316 73.7772 132.195 75 131C73.42 131.684 73.2228 131.805 72 133z"/>
<path style="fill:#c5a562; stroke:none;" d="M87.6667 131.333C87.2222 131.778 88.2778 131.722 88.3333 131.667C88.7778 131.222 87.7222 131.278 87.6667 131.333z"/>
<path style="fill:#ccaf74; stroke:none;" d="M105 131L106 132L105 131z"/>
<path style="fill:#efe6d4; stroke:none;" d="M106 131C107.223 132.195 107.42 132.316 109 133C107.777 131.805 107.58 131.684 106 131z"/>
<path style="fill:#e7d9be; stroke:none;" d="M131 131L132 132L131 131z"/>
<path style="fill:#ccaf74; stroke:none;" d="M132 131L133 132L132 131z"/>
<path style="fill:#bc9649; stroke:none;" d="M89.6667 132.333C89.2222 132.778 90.2778 132.722 90.3333 132.667C90.7778 132.222 89.7222 132.278 89.6667 132.333z"/>
<path style="fill:#c09c53; stroke:none;" d="M106 132L107 133L106 132z"/>
<path style="fill:#decca6; stroke:none;" d="M130 132L131 133L130 132z"/>
<path style="fill:#c5a35f; stroke:none;" d="M70 133L71 134L70 133z"/>
<path style="fill:#c9ab6d; stroke:none;" d="M91 133L92 134L91 133z"/>
<path style="fill:#c8a767; stroke:none;" d="M108 133L109 134L108 133z"/>
<path style="fill:#e8dbc1; stroke:none;" d="M128 133L129 134L128 133z"/>
<path style="fill:#cbac6f; stroke:none;" d="M129 133L130 134L129 133z"/>
<path style="fill:#c09c53; stroke:none;" d="M68 134L69 135L68 134z"/>
<path style="fill:#c7a766; stroke:none;" d="M93 134L94 135L93 134z"/>
<path style="fill:#d5be8e; stroke:none;" d="M110 134L111 135L110 134z"/>
<path style="fill:#ceb27a; stroke:none;" d="M127 134L128 135L127 134z"/>
<path style="fill:#d5bc8b; stroke:none;" d="M67 135L68 136L67 135z"/>
<path style="fill:#dbc69c; stroke:none;" d="M94 135L95 136L94 135z"/>
<path style="fill:#c7a665; stroke:none;" d="M111 135L112 136L111 135z"/>
<path style="fill:#e2d2b0; stroke:none;" d="M112 135L113 136L112 135z"/>
<path style="fill:#bf9a4f; stroke:none;" d="M125.667 135.333C125.222 135.778 126.278 135.722 126.333 135.667C126.778 135.222 125.722 135.278 125.667 135.333z"/>
<path style="fill:#d1b783; stroke:none;" d="M66.3333 136.667C66.2778 136.722 66.2222 137.778 66.6667 137.333C66.7222 137.278 66.7778 136.222 66.3333 136.667z"/>
<path style="fill:#f1e8d8; stroke:none;" d="M67.3333 136.667C67.2778 136.722 67.2222 137.778 67.6667 137.333C67.7222 137.278 67.7778 136.222 67.3333 136.667z"/>
<path style="fill:#cfb37c; stroke:none;" d="M95.6667 136.333C95.2222 136.778 96.2778 136.722 96.3333 136.667C96.7778 136.222 95.7222 136.278 95.6667 136.333z"/>
<path style="fill:#be9a4f; stroke:none;" d="M112 136L113 137L112 136z"/>
<path style="fill:#d6be8f; stroke:none;" d="M113 136L114 137L113 136z"/>
<path style="fill:#cfb37c; stroke:none;" d="M122 138C123.58 137.316 123.777 137.195 125 136C123.42 136.684 123.223 136.805 122 138z"/>
<path style="fill:#ddcaa2; stroke:none;" d="M97 137L98 138L97 137z"/>
<path style="fill:#b48931; stroke:none;" d="M98.6667 137.333C98.2222 137.778 99.2778 137.722 99.3333 137.667C99.7778 137.222 98.7222 137.278 98.6667 137.333z"/>
<path style="fill:#cbad71; stroke:none;" d="M114 137L115 138L114 137z"/>
<path style="fill:#e6d7ba; stroke:none;" d="M121 137L122 138L121 137z"/>
<path style="fill:#d8c194; stroke:none;" d="M67 138L68 139L67 138z"/>
<path style="fill:#d8c294; stroke:none;" d="M99 138L100 139L99 138z"/>
<path style="fill:#dac499; stroke:none;" d="M116 138L117 139L116 138z"/>
<path style="fill:#d6be8d; stroke:none;" d="M120 138L121 139L120 138z"/>
<path style="fill:#caac6f; stroke:none;" d="M135.667 138.333C135.222 138.778 136.278 138.722 136.333 138.667C136.778 138.222 135.722 138.278 135.667 138.333z"/>
<path style="fill:#dfcda8; stroke:none;" d="M69 139L70 140L69 139z"/>
<path style="fill:#d1b781; stroke:none;" d="M101 139L102 140L101 139z"/>
<path style="fill:#c6a664; stroke:none;" d="M117.667 139.333C117.222 139.778 118.278 139.722 118.333 139.667C118.778 139.222 117.722 139.278 117.667 139.333z"/>
<path style="fill:#cfb37b; stroke:none;" d="M133 139L134 140L133 139z"/>
<path style="fill:#ffffff; stroke:none;" d="M67 188C72.2217 217.275 112.752 216.269 128.812 197.996C141.855 183.155 137 157.321 137 139C134.768 139.443 133.018 139.992 131.035 141.174C118.848 148.433 124.307 161.052 122.815 173C121.882 180.472 117.103 187.441 111 191.66C102.651 197.433 94.6377 196.087 87.0903 189.532C84.7658 187.513 82.7424 183.667 79.6998 182.708C75.5214 181.392 70.3094 186.008 67 188z"/>
<path style="fill:#decba6; stroke:none;" d="M137 139L137 178C140.206 170.361 138 158.271 138 150C138 146.298 138.441 142.435 137 139z"/>
<path style="fill:#b78d39; stroke:none;" d="M138 139L138 178C141.206 170.361 139 158.271 139 150C139 146.298 139.441 142.435 138 139z"/>
<path style="fill:#c7a766; stroke:none;" d="M70 140L71 141L70 140z"/>
<path style="fill:#e2d2b1; stroke:none;" d="M102 140L103 141L102 140z"/>
<path style="fill:#ccaf74; stroke:none;" d="M103 140L104 141L103 140z"/>
<path style="fill:#cbad71; stroke:none;" d="M131 140L132 141L131 140z"/>
<path style="fill:#d0b680; stroke:none;" d="M71.6667 141.333C71.2222 141.778 72.2778 141.722 72.3333 141.667C72.7778 141.222 71.7222 141.278 71.6667 141.333z"/>
<path style="fill:#c5a460; stroke:none;" d="M104.667 141.333C104.222 141.778 105.278 141.722 105.333 141.667C105.778 141.222 104.722 141.278 104.667 141.333z"/>
<path style="fill:#cdb177; stroke:none;" d="M127 142C128.809 142.574 129.069 142.465 131 142C129.341 141.594 128.758 141.691 127 142z"/>
<path style="fill:#be994e; stroke:none;" d="M73 142L74 143L73 142z"/>
<path style="fill:#ece1cb; stroke:none;" d="M74.6667 142.333C74.2222 142.778 75.2778 142.722 75.3333 142.667C75.7778 142.222 74.7222 142.278 74.6667 142.333z"/>
<path style="fill:#ba9241; stroke:none;" d="M106.667 142.333C106.222 142.778 107.278 142.722 107.333 142.667C107.778 142.222 106.722 142.278 106.667 142.333z"/>
<path style="fill:#c29e56; stroke:none;" d="M75 143L76 144L75 143z"/>
<path style="fill:#e1d0ad; stroke:none;" d="M107 143L108 144L107 143z"/>
<path style="fill:#bf994e; stroke:none;" d="M108 143L109 144L108 143z"/>
<path style="fill:#c7a766; stroke:none;" d="M126 143L127 144L126 143z"/>
<path style="fill:#c4a35e; stroke:none;" d="M77 144L78 145L77 144z"/>
<path style="fill:#e2d1b0; stroke:none;" d="M78 144L79 145L78 144z"/>
<path style="fill:#e8dbc0; stroke:none;" d="M108 144L108 176C110.599 169.806 109 160.686 109 154C109 150.581 109.328 147.166 108 144z"/>
<path style="fill:#c09b53; stroke:none;" d="M124 144L125 145L124 144z"/>
<path style="fill:#ede2ce; stroke:none;" d="M122 148L127 145C124.259 144.599 123.347 145.657 122 148z"/>
<path style="fill:#c9ab6e; stroke:none;" d="M78.6667 145.333C78.2222 145.778 79.2778 145.722 79.3333 145.667C79.7778 145.222 78.7222 145.278 78.6667 145.333z"/>
<path style="fill:#b2852b; stroke:none;" d="M109 145L109 175C111.395 169.293 110 161.154 110 155C110 151.581 110.328 148.166 109 145z"/>
<path style="fill:#bd974a; stroke:none;" d="M122 145L123 146L122 145z"/>
<path style="fill:#d3ba88; stroke:none;" d="M80.6667 146.333C80.2222 146.778 81.2778 146.722 81.3333 146.667C81.7778 146.222 80.7222 146.278 80.6667 146.333z"/>
<path style="fill:#b78d3a; stroke:none;" d="M82.3333 147.667C82.2778 147.722 82.2222 148.778 82.6667 148.333C82.7222 148.278 82.7778 147.222 82.3333 147.667z"/>
<path style="fill:#d6be8e; stroke:none;" d="M121 147L121 176C123.292 170.538 122 162.887 122 157C122 153.581 122.328 150.166 121 147z"/>
<path style="fill:#d2b884; stroke:none;" d="M83 148L84 149L83 148z"/>
<path style="fill:#f4eee2; stroke:none;" d="M122 148L122 176C124.604 169.793 124.604 154.207 122 148z"/>
<path style="fill:#ccaf74; stroke:none;" d="M81 149L82 150L81 149z"/>
<path style="fill:#c5a360; stroke:none;" d="M79 150L80 151L79 150z"/>
<path style="fill:#ccae73; stroke:none;" d="M76 153C77.58 152.316 77.7772 152.195 79 151C77.42 151.684 77.2228 151.805 76 153z"/>
<path style="fill:#c09c53; stroke:none;" d="M74 153L75 154L74 153z"/>
<path style="fill:#c09b51; stroke:none;" d="M72 154L73 155L72 154z"/>
<path style="fill:#decba4; stroke:none;" d="M73 154L74 155L73 154z"/>
<path style="fill:#bd984c; stroke:none;" d="M70 155L71 156L70 155z"/>
<path style="fill:#ebdfc7; stroke:none;" d="M71.6667 155.333C71.2222 155.778 72.2778 155.722 72.3333 155.667C72.7778 155.222 71.7222 155.278 71.6667 155.333z"/>
<path style="fill:#e2d2b1; stroke:none;" d="M69.6667 156.333C69.2222 156.778 70.2778 156.722 70.3333 156.667C70.7778 156.222 69.7222 156.278 69.6667 156.333z"/>
<path style="fill:#d4bc8a; stroke:none;" d="M51 157L52 158L51 157z"/>
<path style="fill:#c4a25e; stroke:none;" d="M67 157L68 158L67 157z"/>
<path style="fill:#dbc79e; stroke:none;" d="M68 157L69 158L68 157z"/>
<path style="fill:#e6d9bd; stroke:none;" d="M49 158L50 159L49 158z"/>
<path style="fill:#c5a461; stroke:none;" d="M50 158L51 159L50 158z"/>
<path style="fill:#d5bd8c; stroke:none;" d="M66 158L67 159L66 158z"/>
<path style="fill:#cbae72; stroke:none;" d="M48 159L49 160L48 159z"/>
<path style="fill:#d2b884; stroke:none;" d="M64 159L65 160L64 159z"/>
<path style="fill:#bd974b; stroke:none;" d="M46.6667 160.333C46.2222 160.778 47.2778 160.722 47.3333 160.667C47.7778 160.222 46.7222 160.278 46.6667 160.333z"/>
<path style="fill:#cbad71; stroke:none;" d="M62 160L63 161L62 160z"/>
<path style="fill:#c6a564; stroke:none;" d="M44.6667 161.333C44.2222 161.778 45.2778 161.722 45.3333 161.667C45.7778 161.222 44.7222 161.278 44.6667 161.333z"/>
<path style="fill:#d9c396; stroke:none;" d="M60.6667 161.333C60.2222 161.778 61.2778 161.722 61.3333 161.667C61.7778 161.222 60.7222 161.278 60.6667 161.333z"/>
<path style="fill:#cdb177; stroke:none;" d="M42.6667 162.333C42.2222 162.778 43.2778 162.722 43.3333 162.667C43.7778 162.222 42.7222 162.278 42.6667 162.333z"/>
<path style="fill:#d0b57f; stroke:none;" d="M58.6667 162.333C58.2222 162.778 59.2778 162.722 59.3333 162.667C59.7777 162.222 58.7222 162.278 58.6667 162.333z"/>
<path style="fill:#d1b782; stroke:none;" d="M41 163L42 164L41 163z"/>
<path style="fill:#cbac6f; stroke:none;" d="M57 163L58 164L57 163z"/>
<path style="fill:#c8a968; stroke:none;" d="M36 164L37 165L36 164z"/>
<path style="fill:#eadec6; stroke:none;" d="M37 164C38.2484 164.685 38.5484 164.749 40 165C38.7517 164.315 38.4516 164.251 37 164z"/>
<path style="fill:#c6a564; stroke:none;" d="M55 164L56 165L55 164z"/>
<path style="fill:#d3ba87; stroke:none;" d="M90 164C91.3014 169.466 88.7689 180.303 93 184C91.6986 178.534 94.2311 167.697 90 164z"/>
<path style="fill:#f3ecdd; stroke:none;" d="M92 164L92 183C94.0196 178.187 94.0196 168.813 92 164z"/>
<path style="fill:#b88f3c; stroke:none;" d="M36 165C37.506 165.683 38.3148 165.826 40 166C38.494 165.317 37.6852 165.174 36 165z"/>
<path style="fill:#c19e56; stroke:none;" d="M53 165L54 166L53 165z"/>
<path style="fill:#d5bc8b; stroke:none;" d="M88 165L89 166L88 165z"/>
<path style="fill:#c7a665; stroke:none;" d="M50 168C51.58 167.316 51.7772 167.195 53 166C51.42 166.684 51.2228 166.805 50 168z"/>
<path style="fill:#c7a766; stroke:none;" d="M86.6667 166.333C86.2222 166.778 87.2778 166.722 87.3333 166.667C87.7778 166.222 86.7222 166.278 86.6667 166.333z"/>
<path style="fill:#d1b67f; stroke:none;" d="M84.6667 167.333C84.2222 167.778 85.2778 167.722 85.3333 167.667C85.7778 167.222 84.7222 167.278 84.6667 167.333z"/>
<path style="fill:#bd974a; stroke:none;" d="M48 168L49 169L48 168z"/>
<path style="fill:#dbc69d; stroke:none;" d="M49 168L50 169L49 168z"/>
<path style="fill:#d4bb89; stroke:none;" d="M83 168L84 169L83 168z"/>
<path style="fill:#d7c091; stroke:none;" d="M47 169L48 170L47 169z"/>
<path style="fill:#d6bf90; stroke:none;" d="M81 169L82 170L81 169z"/>
<path style="fill:#e6d8bb; stroke:none;" d="M45.6667 170.333C45.2222 170.778 46.2778 170.722 46.3333 170.667C46.7778 170.222 45.7222 170.278 45.6667 170.333z"/>
<path style="fill:#dbc69b; stroke:none;" d="M79 170L80 171L79 170z"/>
<path style="fill:#d6be8f; stroke:none;" d="M41 172C42.8092 172.574 43.0687 172.465 45 172C43.3407 171.594 42.7582 171.691 41 172z"/>
<path style="fill:#d6be8e; stroke:none;" d="M75 172C76.8092 172.574 77.0688 172.465 79 172C77.3407 171.594 76.7582 171.691 75 172z"/>
<path style="fill:#d1b680; stroke:none;" d="M40 173L41 174L40 173z"/>
<path style="fill:#dcc89f; stroke:none;" d="M74 173L75 174L74 173z"/>
<path style="fill:#bf9b51; stroke:none;" d="M38 174L39 175L38 174z"/>
<path style="fill:#ddcaa2; stroke:none;" d="M72 174L73 175L72 174z"/>
<path style="fill:#b68c37; stroke:none;" d="M37 175L37 181C37.9511 178.715 37.9511 177.285 37 175z"/>
<path style="fill:#d7c092; stroke:none;" d="M38 175L38 181C38.9511 178.715 38.9511 177.285 38 175z"/>
<path style="fill:#dfcda9; stroke:none;" d="M70 175L71 176L70 175z"/>
<path style="fill:#d9c498; stroke:none;" d="M67 178C68.58 177.316 68.7772 177.195 70 176C68.42 176.684 68.2228 176.805 67 178z"/>
<path style="fill:#e6d8bc; stroke:none;" d="M107 176L108 177L107 176z"/>
<path style="fill:#c8a96a; stroke:none;" d="M108 176L109 177L108 176z"/>
<path style="fill:#e6d7ba; stroke:none;" d="M121 176L121 179C121.696 177.446 121.696 177.554 121 176z"/>
<path style="fill:#dfcda8; stroke:none;" d="M106 177L107 178L106 177z"/>
<path style="fill:#c5a462; stroke:none;" d="M107 177L108 178L107 177z"/>
<path style="fill:#e3d3b2; stroke:none;" d="M65 178L66 179L65 178z"/>
<path style="fill:#c9a96a; stroke:none;" d="M105 178L106 179L105 178z"/>
<path style="fill:#d0b680; stroke:none;" d="M137 178L137 181C137.696 179.446 137.696 179.554 137 178z"/>
<path style="fill:#c3a05b; stroke:none;" d="M146 178L146 181C146.696 179.446 146.696 179.554 146 178z"/>
<path style="fill:#e7d9be; stroke:none;" d="M147 178L147 181C147.696 179.446 147.696 179.554 147 178z"/>
<path style="fill:#e6d7ba; stroke:none;" d="M63 179L64 180L63 179z"/>
<path style="fill:#cbae73; stroke:none;" d="M103 179L104 180L103 179z"/>
<path style="fill:#e1d0ae; stroke:none;" d="M120.333 179.667C120.278 179.722 120.222 180.778 120.667 180.333C120.722 180.278 120.778 179.222 120.333 179.667z"/>
<path style="fill:#e5d7ba; stroke:none;" d="M61 180L62 181L61 180z"/>
<path style="fill:#b08328; stroke:none;" d="M61 182C62.58 181.316 62.7772 181.195 64 180C62.42 180.684 62.2228 180.805 61 182z"/>
<path style="fill:#bd974b; stroke:none;" d="M78.6667 180.333C78.2222 180.778 79.2778 180.722 79.3333 180.667C79.7778 180.222 78.7222 180.278 78.6667 180.333z"/>
<path style="fill:#bd974a; stroke:none;" d="M101.667 180.333C101.222 180.778 102.278 180.722 102.333 180.667C102.778 180.222 101.722 180.278 101.667 180.333z"/>
<path style="fill:#ece2cd; stroke:none;" d="M136 180L136 183C136.696 181.446 136.696 181.554 136 180z"/>
<path style="fill:#bc9547; stroke:none;" d="M38 181L38 186C38.8299 183.97 38.8299 183.03 38 181z"/>
<path style="fill:#dfcda8; stroke:none;" d="M58 183C59.58 182.316 59.7772 182.195 61 181C59.42 181.684 59.2228 181.805 58 183z"/>
<path style="fill:#dbc79d; stroke:none;" d="M77 181C78.506 181.683 79.3148 181.826 81 182C79.4939 181.317 78.6852 181.174 77 181z"/>
<path style="fill:#c4a25e; stroke:none;" d="M99.6667 181.333C99.2222 181.778 100.278 181.722 100.333 181.667C100.778 181.222 99.7222 181.278 99.6667 181.333z"/>
<path style="fill:#be9a4f; stroke:none;" d="M137 181L137 184C137.696 182.446 137.696 182.554 137 181z"/>
<path style="fill:#dbc79d; stroke:none;" d="M146.333 181.667C146.278 181.722 146.222 182.778 146.667 182.333C146.722 182.278 146.778 181.222 146.333 181.667z"/>
<path style="fill:#d6be8e; stroke:none;" d="M163.333 181.667C163.278 181.722 163.222 182.778 163.667 182.333C163.722 182.278 163.778 181.222 163.333 181.667z"/>
<path style="fill:#c09c54; stroke:none;" d="M75 182L76 183L75 182z"/>
<path style="fill:#d9c397; stroke:none;" d="M76 182L77 183L76 182z"/>
<path style="fill:#ccaf74; stroke:none;" d="M81 182L82 183L81 182z"/>
<path style="fill:#e0cfab; stroke:none;" d="M97 182L98 183L97 182z"/>
<path style="fill:#caab6e; stroke:none;" d="M98 182L99 183L98 182z"/>
<path style="fill:#caac6f; stroke:none;" d="M119 182L120 183L119 182z"/>
<path style="fill:#e8dabf; stroke:none;" d="M56 183L57 184L56 183z"/>
<path style="fill:#caac6e; stroke:none;" d="M57 183L58 184L57 183z"/>
<path style="fill:#d4bb88; stroke:none;" d="M74 183L75 184L74 183z"/>
<path style="fill:#e2d3b1; stroke:none;" d="M81 183L82 184L81 183z"/>
<path style="fill:#d3bb89; stroke:none;" d="M82.3333 183.667C82.2778 183.722 82.2222 184.778 82.6667 184.333C82.7222 184.278 82.7778 183.222 82.3333 183.667z"/>
<path style="fill:#cbad71; stroke:none;" d="M96 183L97 184L96 183z"/>
<path style="fill:#cfb47c; stroke:none;" d="M118.333 183.667C118.278 183.722 118.222 184.778 118.667 184.333C118.722 184.278 118.778 183.222 118.333 183.667z"/>
<path style="fill:#cbae71; stroke:none;" d="M136.333 183.667C136.278 183.722 136.222 184.778 136.667 184.333C136.722 184.278 136.778 183.222 136.333 183.667z"/>
<path style="fill:#e9ddc3; stroke:none;" d="M146 183L146 186C146.696 184.446 146.696 184.554 146 183z"/>
<path style="fill:#c8a868; stroke:none;" d="M163 183L163 186C163.696 184.446 163.696 184.554 163 183z"/>
<path style="fill:#e4d5b6; stroke:none;" d="M39 184L39 187C39.6961 185.446 39.6961 185.554 39 184z"/>
<path style="fill:#bb9546; stroke:none;" d="M55 184L55 187C56.0154 185.861 56.3087 185.388 57 184L55 184z"/>
<path style="fill:#d1b782; stroke:none;" d="M72 184L73 185L72 184z"/>
<path style="fill:#c6a563; stroke:none;" d="M93.6667 184.333C93.2222 184.778 94.2778 184.722 94.3333 184.667C94.7778 184.222 93.7222 184.278 93.6667 184.333z"/>
<path style="fill:#e5d7b9; stroke:none;" d="M162 184L162 187C162.696 185.446 162.696 185.554 162 184z"/>
<path style="fill:#cdb178; stroke:none;" d="M70 185L71 186L70 185z"/>
<path style="fill:#ccaf74; stroke:none;" d="M83 185L84 186L83 185z"/>
<path style="fill:#c8a868; stroke:none;" d="M117 185L118 186L117 185z"/>
<path style="fill:#b8903f; stroke:none;" d="M136.333 185.667C136.278 185.722 136.222 186.778 136.667 186.333C136.722 186.278 136.778 185.222 136.333 185.667z"/>
<path style="fill:#d7c092; stroke:none;" d="M145.333 185.667C145.278 185.722 145.222 186.778 145.667 186.333C145.722 186.278 145.778 185.222 145.333 185.667z"/>
<path style="fill:#d1b680; stroke:none;" d="M67 188C68.58 187.316 68.7772 187.195 70 186C68.42 186.684 68.2228 186.805 67 188z"/>
<path style="fill:#c09d54; stroke:none;" d="M116 186L117 187L116 186z"/>
<path style="fill:#c09b52; stroke:none;" d="M39.3333 187.667C39.2778 187.722 39.2222 188.778 39.6667 188.333C39.7223 188.278 39.7778 187.222 39.3333 187.667z"/>
<path style="fill:#e5d7ba; stroke:none;" d="M55.3333 187.667C55.2778 187.722 55.2222 188.778 55.6667 188.333C55.7223 188.278 55.7778 187.222 55.3333 187.667z"/>
<path style="fill:#b8903e; stroke:none;" d="M56 187L56 190C56.6961 188.446 56.6961 188.554 56 187z"/>
<path style="fill:#e1cfac; stroke:none;" d="M84 187L85 188L84 187z"/>
<path style="fill:#e0cda9; stroke:none;" d="M116 187L117 188L116 187z"/>
<path style="fill:#bd974a; stroke:none;" d="M135.333 187.667C135.278 187.722 135.222 188.778 135.667 188.333C135.722 188.278 135.778 187.222 135.333 187.667z"/>
<path style="fill:#ceb279; stroke:none;" d="M162 187L162 190C162.696 188.446 162.696 188.554 162 187z"/>
<path style="fill:#e2d1ae; stroke:none;" d="M66 188L66 191C66.6961 189.446 66.6961 189.554 66 188z"/>
<path style="fill:#dfcba5; stroke:none;" d="M85 188L86 189L85 188z"/>
<path style="fill:#e0cfac; stroke:none;" d="M115 188L116 189L115 188M86 189L87 190L86 189z"/>
<path style="fill:#e3d2b2; stroke:none;" d="M134 189L135 190L134 189z"/>
<path style="fill:#b78e3a; stroke:none;" d="M143 189L143 192C144.015 190.861 144.309 190.388 145 189L143 189z"/>
<path style="fill:#e0ceaa; stroke:none;" d="M161.333 189.667C161.278 189.722 161.222 190.778 161.667 190.333C161.722 190.278 161.778 189.222 161.333 189.667z"/>
<path style="fill:#d2b884; stroke:none;" d="M40.3333 190.667C40.2778 190.722 40.2222 191.778 40.6667 191.333C40.7222 191.278 40.7778 190.222 40.3333 190.667z"/>
<path style="fill:#f3ecde; stroke:none;" d="M41 190L41 194C41.7102 192.241 41.7102 191.759 41 190z"/>
<path style="fill:#dbc79e; stroke:none;" d="M56.3333 190.667C56.2778 190.722 56.2222 191.778 56.6667 191.333C56.7222 191.278 56.7778 190.222 56.3333 190.667z"/>
<path style="fill:#c8a868; stroke:none;" d="M88 190L89 191L88 190z"/>
<path style="fill:#c5a461; stroke:none;" d="M112 190L113 191L112 190z"/>
<path style="fill:#dfcca7; stroke:none;" d="M133.333 190.667C133.278 190.722 133.222 191.778 133.667 191.333C133.722 191.278 133.778 190.222 133.333 190.667z"/>
<path style="fill:#b38830; stroke:none;" d="M162.333 190.667C162.278 190.722 162.222 191.778 162.667 191.333C162.722 191.278 162.778 190.222 162.333 190.667z"/>
<path style="fill:#c7a766; stroke:none;" d="M57 191L57 194C57.6961 192.446 57.6961 192.554 57 191z"/>
<path style="fill:#cfb37b; stroke:none;" d="M67.3333 191.667C67.2778 191.722 67.2222 192.778 67.6667 192.333C67.7222 192.278 67.7778 191.222 67.3333 191.667z"/>
<path style="fill:#d0b67f; stroke:none;" d="M89 191L90 192L89 191z"/>
<path style="fill:#d0b47d; stroke:none;" d="M111 191L112 192L111 191z"/>
<path style="fill:#c7a766; stroke:none;" d="M161.333 191.667C161.278 191.722 161.222 192.778 161.667 192.333C161.722 192.278 161.778 191.222 161.333 191.667z"/>
<path style="fill:#ddc9a1; stroke:none;" d="M90 192L91 193L90 192z"/>
<path style="fill:#b99140; stroke:none;" d="M91.6667 192.333C91.2222 192.778 92.2778 192.722 92.3333 192.667C92.7778 192.222 91.7222 192.278 91.6667 192.333z"/>
<path style="fill:#c5a460; stroke:none;" d="M108.667 192.333C108.222 192.778 109.278 192.722 109.333 192.667C109.778 192.222 108.722 192.278 108.667 192.333z"/>
<path style="fill:#dcc9a0; stroke:none;" d="M110 192L111 193L110 192z"/>
<path style="fill:#c8a969; stroke:none;" d="M133 192L134 193L133 192z"/>
<path style="fill:#e4d5b5; stroke:none;" d="M143.333 192.667C143.278 192.722 143.222 193.778 143.667 193.333C143.722 193.278 143.778 192.222 143.333 192.667z"/>
<path style="fill:#e0cea9; stroke:none;" d="M68 193L69 194L68 193z"/>
<path style="fill:#e5d7b9; stroke:none;" d="M92 193L93 194L92 193z"/>
<path style="fill:#bd964a; stroke:none;" d="M93.6667 193.333C93.2222 193.778 94.2778 193.722 94.3333 193.667C94.7778 193.222 93.7222 193.278 93.6667 193.333z"/>
<path style="fill:#c9aa6c; stroke:none;" d="M107 193L108 194L107 193z"/>
<path style="fill:#e2d2b1; stroke:none;" d="M108 193L109 194L108 193z"/>
<path style="fill:#c09c53; stroke:none;" d="M132.333 193.667C132.278 193.722 132.222 194.778 132.667 194.333C132.722 194.278 132.778 193.222 132.333 193.667z"/>
<path style="fill:#cfb37c; stroke:none;" d="M142 193L142 196C142.696 194.446 142.696 194.554 142 193z"/>
<path style="fill:#b48831; stroke:none;" d="M161.333 193.667C161.278 193.722 161.222 194.778 161.667 194.333C161.722 194.278 161.778 193.222 161.333 193.667z"/>
<path style="fill:#c6a462; stroke:none;" d="M41.3333 194.667C41.2777 194.722 41.2222 195.778 41.6667 195.333C41.7222 195.278 41.7778 194.222 41.3333 194.667z"/>
<path style="fill:#c29f58; stroke:none;" d="M58 194L59 195L58 194z"/>
<path style="fill:#b68b36; stroke:none;" d="M68.3333 194.667C68.2778 194.722 68.2222 195.778 68.6667 195.333C68.7222 195.278 68.7778 194.222 68.3333 194.667z"/>
<path style="fill:#d2b883; stroke:none;" d="M96.6667 194.333C96.2222 194.778 97.2778 194.722 97.3333 194.667C97.7778 194.222 96.7222 194.278 96.6667 194.333z"/>
<path style="fill:#c5a35f; stroke:none;" d="M98 194C99.7691 194.779 101.036 194.912 103 195C101.231 194.221 99.9641 194.088 98 194z"/>
<path style="fill:#dac59a; stroke:none;" d="M103.667 194.333C103.222 194.778 104.278 194.722 104.333 194.667C104.778 194.222 103.722 194.278 103.667 194.333z"/>
<path style="fill:#e4d5b6; stroke:none;" d="M131 194L132 195L131 194z"/>
<path style="fill:#d8c193; stroke:none;" d="M160 194L161 195L160 194z"/>
<path style="fill:#dbc69d; stroke:none;" d="M42 195L42 198C42.6961 196.446 42.6961 196.554 42 195z"/>
<path style="fill:#eadec6; stroke:none;" d="M58.3333 195.667C58.2778 195.722 58.2222 196.778 58.6667 196.333C58.7222 196.278 58.7778 195.222 58.3333 195.667z"/>
<path style="fill:#dac59a; stroke:none;" d="M69 195L70 196L69 195z"/>
<path style="fill:#efe5d2; stroke:none;" d="M96 195C98.8897 196.213 101.874 195.998 105 196C102.11 194.787 99.1259 195.002 96 195z"/>
<path style="fill:#d4bb88; stroke:none;" d="M130 196L131 197L130 196z"/>
<path style="fill:#e4d5b6; stroke:none;" d="M141 196L141 198C142.635 197.455 142.455 197.635 143 196L141 196z"/>
<path style="fill:#dbc69d; stroke:none;" d="M59 197L60 198L59 197z"/>
<path style="fill:#d4bc8b; stroke:none;" d="M70 197L71 198L70 197z"/>
<path style="fill:#e1d0ad; stroke:none;" d="M129 197L130 198L129 197z"/>
<path style="fill:#ece1cb; stroke:none;" d="M158 197L158 200C159.015 198.861 159.309 198.388 160 197L158 197z"/>
<path style="fill:#ceb279; stroke:none;" d="M43.3333 198.667C43.2778 198.722 43.2222 199.778 43.6667 199.333C43.7222 199.278 43.7778 198.222 43.3333 198.667z"/>
<path style="fill:#decca5; stroke:none;" d="M71 198L72 199L71 198z"/>
<path style="fill:#e4d4b4; stroke:none;" d="M128 198L129 199L128 198z"/>
<path style="fill:#d3ba87; stroke:none;" d="M140 198L141 199L140 198z"/>
<path style="fill:#e0cda8; stroke:none;" d="M60 199L61 200L60 199z"/>
<path style="fill:#ddc9a2; stroke:none;" d="M72 199L73 200L72 199z"/>
<path style="fill:#e0ceaa; stroke:none;" d="M127 199L128 200L127 199z"/>
<path style="fill:#ccaf74; stroke:none;" d="M61 200L62 201L61 200z"/>
<path style="fill:#ddc9a1; stroke:none;" d="M73 200L74 201L73 200M126 200L127 201L126 200z"/>
<path style="fill:#dcc89f; stroke:none;" d="M139 200L140 201L139 200z"/>
<path style="fill:#dbc69d; stroke:none;" d="M157 200L157 202C158.635 201.455 158.455 201.635 159 200L157 200z"/>
<path style="fill:#d2b884; stroke:none;" d="M44 201L45 202L44 201z"/>
<path style="fill:#c3a15d; stroke:none;" d="M62 201L63 202L62 201z"/>
<path style="fill:#e0ceaa; stroke:none;" d="M74 201L75 202L74 201z"/>
<path style="fill:#dbc79e; stroke:none;" d="M125 201L126 202L125 201z"/>
<path style="fill:#cdb177; stroke:none;" d="M138 201L139 202L138 201z"/>
<path style="fill:#ddcaa3; stroke:none;" d="M62 202L63 203L62 202z"/>
<path style="fill:#dcc9a0; stroke:none;" d="M124 202L125 203L124 202z"/>
<path style="fill:#c6a664; stroke:none;" d="M137 202L138 203L137 202z"/>
<path style="fill:#ba9242; stroke:none;" d="M157.333 202.667C157.278 202.722 157.222 203.778 157.667 203.333C157.722 203.278 157.778 202.222 157.333 202.667z"/>
<path style="fill:#dac59a; stroke:none;" d="M45 203L46 204L45 203z"/>
<path style="fill:#dac59b; stroke:none;" d="M63 203L64 204L63 203z"/>
<path style="fill:#d6be8e; stroke:none;" d="M123 203L124 204L123 203z"/>
<path style="fill:#e1cfac; stroke:none;" d="M137 203L138 204L137 203z"/>
<path style="fill:#dcc89f; stroke:none;" d="M156 203L157 204L156 203z"/>
<path style="fill:#d4bc8b; stroke:none;" d="M64 204L65 205L64 204z"/>
<path style="fill:#d7c193; stroke:none;" d="M77 204L78 205L77 204z"/>
<path style="fill:#e6d8bc; stroke:none;" d="M121 204L122 205L121 204z"/>
<path style="fill:#c5a562; stroke:none;" d="M122 204L123 205L122 204z"/>
<path style="fill:#d3ba87; stroke:none;" d="M46 205L47 206L46 205z"/>
<path style="fill:#d1b781; stroke:none;" d="M65 205L66 206L65 205z"/>
<path style="fill:#ccae73; stroke:none;" d="M78 205L79 206L78 205z"/>
<path style="fill:#d6be8f; stroke:none;" d="M120 205L121 206L120 205z"/>
<path style="fill:#dbc69c; stroke:none;" d="M135 205L136 206L135 205z"/>
<path style="fill:#d7c090; stroke:none;" d="M155 205L156 206L155 205z"/>
<path style="fill:#decca6; stroke:none;" d="M47 206L48 207L47 206z"/>
<path style="fill:#d1b680; stroke:none;" d="M66 206L67 207L66 206z"/>
<path style="fill:#dbc59b; stroke:none;" d="M79.6667 206.333C79.2222 206.778 80.2778 206.722 80.3333 206.667C80.7778 206.222 79.7222 206.278 79.6667 206.333z"/>
<path style="fill:#d6be8f; stroke:none;" d="M116 207C117.809 207.574 118.069 207.465 120 207C118.341 206.594 117.758 206.691 116 207z"/>
<path style="fill:#d3ba87; stroke:none;" d="M134 206L135 207L134 206z"/>
<path style="fill:#b48932; stroke:none;" d="M47.3333 207.667C47.2778 207.722 47.2222 208.778 47.6667 208.333C47.7222 208.278 47.7778 207.222 47.3333 207.667z"/>
<path style="fill:#d2b884; stroke:none;" d="M67 207L68 208L67 207z"/>
<path style="fill:#e4d5b6; stroke:none;" d="M81.6667 207.333C81.2222 207.778 82.2778 207.722 82.3333 207.667C82.7778 207.222 81.7222 207.278 81.6667 207.333z"/>
<path style="fill:#d0b57f; stroke:none;" d="M133 207L134 208L133 207z"/>
<path style="fill:#d2b984; stroke:none;" d="M154 207L155 208L154 207z"/>
<path style="fill:#d3ba88; stroke:none;" d="M48 208L49 209L48 208z"/>
<path style="fill:#d8c193; stroke:none;" d="M68 208L69 209L68 208z"/>
<path style="fill:#d0b57d; stroke:none;" d="M83 208L84 209L83 208z"/>
<path style="fill:#dbc59b; stroke:none;" d="M115 208L116 209L115 208z"/>
<path style="fill:#d6be8f; stroke:none;" d="M132 208L133 209L132 208z"/>
<path style="fill:#e3d3b2; stroke:none;" d="M153 208L154 209L153 208z"/>
<path style="fill:#e0cda9; stroke:none;" d="M69 209L70 210L69 209z"/>
<path style="fill:#c8a868; stroke:none;" d="M85 209L86 210L85 209z"/>
<path style="fill:#e6d7bb; stroke:none;" d="M112 209L113 210L112 209z"/>
<path style="fill:#cdb178; stroke:none;" d="M113 209L114 210L113 209z"/>
<path style="fill:#e0ceaa; stroke:none;" d="M131 209L132 210L131 209z"/>
<path style="fill:#e9dcc3; stroke:none;" d="M152 209L153 210L152 209z"/>
<path style="fill:#c6a563; stroke:none;" d="M153 209L154 210L153 209z"/>
<path style="fill:#e0cfab; stroke:none;" d="M70 210L71 211L70 210z"/>
<path style="fill:#bf9a4f; stroke:none;" d="M86 210C87.2484 210.685 87.5484 210.749 89 211C87.7516 210.315 87.4516 210.251 86 210z"/>
<path style="fill:#e4d4b4; stroke:none;" d="M89.6667 210.333C89.2222 210.778 90.2778 210.722 90.3333 210.667C90.7778 210.222 89.7222 210.278 89.6667 210.333z"/>
<path style="fill:#decba5; stroke:none;" d="M108.667 210.333C108.222 210.778 109.278 210.722 109.333 210.667C109.778 210.222 108.722 210.278 108.667 210.333z"/>
<path style="fill:#c3a05b; stroke:none;" d="M110.667 210.333C110.222 210.778 111.278 210.722 111.333 210.667C111.778 210.222 110.722 210.278 110.667 210.333z"/>
<path style="fill:#c4a25e; stroke:none;" d="M129 210L130 211L129 210z"/>
<path style="fill:#cfb47d; stroke:none;" d="M152 210L153 211L152 210z"/>
<path style="fill:#d3bb88; stroke:none;" d="M50 211L51 212L50 211z"/>
<path style="fill:#e3d3b2; stroke:none;" d="M71 211L72 212L71 211z"/>
<path style="fill:#c9aa6b; stroke:none;" d="M72 211L73 212L72 211z"/>
<path style="fill:#bf9a50; stroke:none;" d="M89.6667 211.333C89.2222 211.778 90.2778 211.722 90.3333 211.667C90.7778 211.222 89.7222 211.278 89.6667 211.333z"/>
<path style="fill:#dbc69c; stroke:none;" d="M91 211C92.5061 211.683 93.3148 211.826 95 212C93.494 211.317 92.6852 211.174 91 211z"/>
<path style="fill:#e8dabf; stroke:none;" d="M95 211C98.1633 212.327 101.586 212 105 212C101.837 210.673 98.4144 211 95 211z"/>
<path style="fill:#d4bb89; stroke:none;" d="M105 211C106.248 211.685 106.548 211.749 108 212C106.752 211.315 106.452 211.251 105 211z"/>
<path style="fill:#bb9445; stroke:none;" d="M108.667 211.333C108.222 211.778 109.278 211.722 109.333 211.667C109.778 211.222 108.722 211.278 108.667 211.333z"/>
<path style="fill:#ceb178; stroke:none;" d="M128 211L129 212L128 211z"/>
<path style="fill:#d7c092; stroke:none;" d="M151 211L152 212L151 211z"/>
<path style="fill:#decba5; stroke:none;" d="M51 212L52 213L51 212z"/>
<path style="fill:#d0b580; stroke:none;" d="M73 212L74 213L73 212z"/>
<path style="fill:#c5a562; stroke:none;" d="M94 212C97.4324 213.44 101.3 213 105 213C101.568 211.56 97.7002 212 94 212z"/>
<path style="fill:#d5bd8d; stroke:none;" d="M127 212L128 213L127 212z"/>
<path style="fill:#e6d7ba; stroke:none;" d="M150 212L151 213L150 212z"/>
<path style="fill:#c09d54; stroke:none;" d="M51 213L52 214L51 213z"/>
<path style="fill:#e4d4b5; stroke:none;" d="M52 213L53 214L52 213z"/>
<path style="fill:#e1d0ae; stroke:none;" d="M74 213L75 214L74 213z"/>
<path style="fill:#c19e56; stroke:none;" d="M125 213L126 214L125 213z"/>
<path style="fill:#c8a868; stroke:none;" d="M52 214L53 215L52 214z"/>
<path style="fill:#d9c396; stroke:none;" d="M76 214L77 215L76 214z"/>
<path style="fill:#dcc9a1; stroke:none;" d="M124 214L125 215L124 214z"/>
<path style="fill:#c9aa6b; stroke:none;" d="M149 214L150 215L149 214z"/>
<path style="fill:#c9ab6d; stroke:none;" d="M53 215L54 216L53 215z"/>
<path style="fill:#d4bc8b; stroke:none;" d="M77.6667 215.333C77.2222 215.778 78.2778 215.722 78.3333 215.667C78.7778 215.222 77.7222 215.278 77.6667 215.333z"/>
<path style="fill:#be994e; stroke:none;" d="M121 215L122 216L121 215z"/>
<path style="fill:#f3ecde; stroke:none;" d="M121 217C122.58 216.316 122.777 216.195 124 215C122.42 215.684 122.223 215.805 121 217z"/>
<path style="fill:#d0b47d; stroke:none;" d="M148 215L149 216L148 215z"/>
<path style="fill:#ceb279; stroke:none;" d="M54 216L55 217L54 216z"/>
<path style="fill:#d3bb89; stroke:none;" d="M79.6667 216.333C79.2222 216.778 80.2778 216.722 80.3333 216.667C80.7778 216.222 79.7222 216.278 79.6667 216.333z"/>
<path style="fill:#b58b35; stroke:none;" d="M81.6667 216.333C81.2222 216.778 82.2778 216.722 82.3333 216.667C82.7778 216.222 81.7222 216.278 81.6667 216.333z"/>
<path style="fill:#d3ba88; stroke:none;" d="M119.667 216.333C119.222 216.778 120.278 216.722 120.333 216.667C120.778 216.222 119.722 216.278 119.667 216.333z"/>
<path style="fill:#d3b986; stroke:none;" d="M147 216L148 217L147 216z"/>
<path style="fill:#d6be8e; stroke:none;" d="M55 217L56 218L55 217z"/>
<path style="fill:#d6be8f; stroke:none;" d="M81.6667 217.333C81.2222 217.778 82.2778 217.722 82.3333 217.667C82.7778 217.222 81.7222 217.278 81.6667 217.333z"/>
<path style="fill:#ba9243; stroke:none;" d="M83.6667 217.333C83.2222 217.778 84.2778 217.722 84.3333 217.667C84.7778 217.222 83.7222 217.278 83.6667 217.333z"/>
<path style="fill:#b8903e; stroke:none;" d="M115 219L118 218C116.222 217.045 115.979 217.234 115 219z"/>
<path style="fill:#e9ddc5; stroke:none;" d="M118.667 217.333C118.222 217.778 119.278 217.722 119.333 217.667C119.778 217.222 118.722 217.278 118.667 217.333z"/>
<path style="fill:#d6be8e; stroke:none;" d="M146 217L147 218L146 217z"/>
<path style="fill:#d8c295; stroke:none;" d="M56 218L57 219L56 218z"/>
<path style="fill:#be9a4f; stroke:none;" d="M85.6667 218.333C85.2222 218.778 86.2778 218.722 86.3333 218.667C86.7778 218.222 85.7222 218.278 85.6667 218.333z"/>
<path style="fill:#dbc69d; stroke:none;" d="M145 218L146 219L145 218z"/>
<path style="fill:#d1b782; stroke:none;" d="M57 219L58 220L57 219z"/>
<path style="fill:#d0b57f; stroke:none;" d="M88.6667 219.333C88.2223 219.778 89.2778 219.722 89.3333 219.667C89.7778 219.222 88.7222 219.278 88.6667 219.333z"/>
<path style="fill:#d6be8f; stroke:none;" d="M111.667 219.333C111.222 219.778 112.278 219.722 112.333 219.667C112.778 219.222 111.722 219.278 111.667 219.333z"/>
<path style="fill:#d6bf8f; stroke:none;" d="M144 219L145 220L144 219z"/>
<path style="fill:#ccb075; stroke:none;" d="M58 220L59 221L58 220z"/>
<path style="fill:#e8dbc0; stroke:none;" d="M88 220C89.7691 220.779 91.0359 220.912 93 221C91.231 220.221 89.964 220.088 88 220z"/>
<path style="fill:#d3ba87; stroke:none;" d="M93.6667 220.333C93.2222 220.778 94.2778 220.722 94.3333 220.667C94.7778 220.222 93.7222 220.278 93.6667 220.333z"/>
<path style="fill:#c19d55; stroke:none;" d="M95 220C98.4324 221.44 102.3 221 106 221C102.568 219.56 98.7002 220 95 220z"/>
<path style="fill:#d5bd8d; stroke:none;" d="M106.667 220.333C106.222 220.778 107.278 220.722 107.333 220.667C107.778 220.222 106.722 220.278 106.667 220.333z"/>
<path style="fill:#efe5d2; stroke:none;" d="M108 220C109.506 220.683 110.315 220.826 112 221C110.494 220.317 109.685 220.174 108 220z"/>
<path style="fill:#d1b781; stroke:none;" d="M143 220L144 221L143 220z"/>
<path style="fill:#ccae73; stroke:none;" d="M59 221L60 222L59 221z"/>
<path style="fill:#e2d1af; stroke:none;" d="M93 221C96.6975 222.552 101.017 222 105 222C101.303 220.448 96.9832 221 93 221z"/>
<path style="fill:#efe6d4; stroke:none;" d="M105 221C106.248 221.685 106.548 221.749 108 222C106.752 221.315 106.452 221.251 105 221z"/>
<path style="fill:#cfb37b; stroke:none;" d="M142 221L143 222L142 221z"/>
<path style="fill:#cbad71; stroke:none;" d="M60 222L61 223L60 222z"/>
<path style="fill:#caac70; stroke:none;" d="M141 222L142 223L141 222z"/>
<path style="fill:#e0cda9; stroke:none;" d="M62 223L63 224L62 223z"/>
<path style="fill:#e8dbc0; stroke:none;" d="M139 223L140 224L139 223z"/>
<path style="fill:#cfb47d; stroke:none;" d="M63 224L64 225L63 224z"/>
<path style="fill:#d8c193; stroke:none;" d="M138 224L139 225L138 224z"/>
<path style="fill:#c6a563; stroke:none;" d="M64 225L65 226L64 225z"/>
<path style="fill:#e7d9bd; stroke:none;" d="M136 225L137 226L136 225z"/>
<path style="fill:#cbad71; stroke:none;" d="M137 225L138 226L137 225z"/>
<path style="fill:#d8c194; stroke:none;" d="M65.6667 226.333C65.2222 226.778 66.2778 226.722 66.3333 226.667C66.7778 226.222 65.7222 226.278 65.6667 226.333z"/>
<path style="fill:#dcc79e; stroke:none;" d="M135 226L136 227L135 226z"/>
<path style="fill:#cbad71; stroke:none;" d="M67 227L68 228L67 227z"/>
<path style="fill:#d1b681; stroke:none;" d="M133.667 227.333C133.222 227.778 134.278 227.722 134.333 227.667C134.778 227.222 133.722 227.278 133.667 227.333z"/>
<path style="fill:#d2b884; stroke:none;" d="M69 228L70 229L69 228z"/>
<path style="fill:#d9c396; stroke:none;" d="M132 228L133 229L132 228z"/>
<path style="fill:#d6bf90; stroke:none;" d="M71 229L72 230L71 229z"/>
<path style="fill:#d9c498; stroke:none;" d="M130 229L131 230L130 229z"/>
<path style="fill:#d1b680; stroke:none;" d="M72.6667 230.333C72.2222 230.778 73.2778 230.722 73.3333 230.667C73.7778 230.222 72.7222 230.278 72.6667 230.333z"/>
<path style="fill:#b48933; stroke:none;" d="M127 232C128.58 231.316 128.777 231.195 130 230C128.42 230.684 128.223 230.805 127 232z"/>
<path style="fill:#d2b884; stroke:none;" d="M74.6667 231.333C74.2222 231.778 75.2778 231.722 75.3333 231.667C75.7778 231.222 74.7222 231.278 74.6667 231.333z"/>
<path style="fill:#f1e8d8; stroke:none;" d="M76.6667 231.333C76.2222 231.778 77.2778 231.722 77.3333 231.667C77.7778 231.222 76.7222 231.278 76.6667 231.333z"/>
<path style="fill:#d4bb89; stroke:none;" d="M125.667 231.333C125.222 231.778 126.278 231.722 126.333 231.667C126.778 231.222 125.722 231.278 125.667 231.333z"/>
<path style="fill:#d0b57f; stroke:none;" d="M76.6667 232.333C76.2222 232.778 77.2778 232.722 77.3333 232.667C77.7778 232.222 76.7222 232.278 76.6667 232.333z"/>
<path style="fill:#ebdfc7; stroke:none;" d="M78.6667 232.333C78.2222 232.778 79.2778 232.722 79.3333 232.667C79.7778 232.222 78.7222 232.278 78.6667 232.333z"/>
<path style="fill:#ece2cc; stroke:none;" d="M121 234L124 233C122.222 232.045 121.979 232.234 121 234z"/>
<path style="fill:#be994e; stroke:none;" d="M124.667 232.333C124.222 232.778 125.278 232.722 125.333 232.667C125.778 232.222 124.722 232.278 124.667 232.333z"/>
<path style="fill:#d1b680; stroke:none;" d="M80 233L81 234L80 233z"/>
<path style="fill:#caac6f; stroke:none;" d="M82 234C83.2484 234.685 83.5484 234.749 85 235C83.7516 234.315 83.4516 234.251 82 234z"/>
<path style="fill:#dbc79e; stroke:none;" d="M116.667 234.333C116.222 234.778 117.278 234.722 117.333 234.667C117.778 234.222 116.722 234.278 116.667 234.333z"/>
<path style="fill:#bc9547; stroke:none;" d="M118.667 234.333C118.222 234.778 119.278 234.722 119.333 234.667C119.778 234.222 118.722 234.278 118.667 234.333z"/>
<path style="fill:#b48933; stroke:none;" d="M83 235C84.2484 235.685 84.5484 235.749 86 236C84.7517 235.315 84.4516 235.251 83 235z"/>
<path style="fill:#c9aa6c; stroke:none;" d="M86.6667 235.333C86.2222 235.778 87.2778 235.722 87.3333 235.667C87.7778 235.222 86.7222 235.278 86.6667 235.333z"/>
<path style="fill:#dcc9a1; stroke:none;" d="M88 235C89.2484 235.685 89.5484 235.749 91 236C89.7517 235.315 89.4516 235.251 88 235z"/>
<path style="fill:#f2eadb; stroke:none;" d="M91.6667 235.333C91.2222 235.778 92.2778 235.722 92.3333 235.667C92.7778 235.222 91.7222 235.278 91.6667 235.333z"/>
<path style="fill:#ece0c9; stroke:none;" d="M109.667 235.333C109.222 235.778 110.278 235.722 110.333 235.667C110.778 235.222 109.722 235.278 109.667 235.333z"/>
<path style="fill:#ddcaa3; stroke:none;" d="M111 235C112.248 235.685 112.548 235.749 114 236C112.752 235.315 112.452 235.251 111 235z"/>
<path style="fill:#b58a35; stroke:none;" d="M114 235C115.506 235.683 116.315 235.826 118 236C116.494 235.317 115.685 235.174 114 235z"/>
<path style="fill:#ba9242; stroke:none;" d="M88 236C89.2484 236.685 89.5484 236.749 91 237C89.7517 236.315 89.4516 236.251 88 236z"/>
<path style="fill:#decba5; stroke:none;" d="M91 236C96.2224 238.191 103.368 237 109 237C103.778 234.809 96.6322 236 91 236z"/>
<path style="fill:#c5a35f; stroke:none;" d="M109 236C110.248 236.685 110.548 236.749 112 237C110.752 236.315 110.452 236.251 109 236z"/>
<path style="fill:#b48933; stroke:none;" d="M112.667 236.333C112.222 236.778 113.278 236.722 113.333 236.667C113.778 236.222 112.722 236.278 112.667 236.333z"/>
<path style="fill:#b2862d; stroke:none;" d="M95 237C98.4324 238.44 102.3 238 106 238C102.568 236.56 98.7002 237 95 237z"/>
</svg>
